<svg version="1.2" xmlns="http://www.w3.org/2000/svg" viewBox="0 0 2500 2000" width="600" height="480">
	<title>Professional_worker_safety_machine_engineer_character_cartoon_hand_drawn_cartoon_art_illustration-ai</title>
	<defs>
		<linearGradient id="g1" x2="1" gradientUnits="userSpaceOnUse" gradientTransform="matrix(0,-83.124,83.124,0,1022.59,883.76)">
			<stop offset="0" stop-color="#ff9694"/>
			<stop offset="1" stop-color="#ffd9bd"/>
		</linearGradient>
		<linearGradient id="g2" x2="1" gradientUnits="userSpaceOnUse" gradientTransform="matrix(0,-83.124,83.124,0,1459.921,890.673)">
			<stop offset="0" stop-color="#ff9694"/>
			<stop offset="1" stop-color="#ffd9bd"/>
		</linearGradient>
	</defs>
	<style>
		.s0 { fill: #e0e0e0 } 
		.s1 { fill: #3e5c76 } 
		.s2 { fill: #ffe4d2 } 
		.s3 { fill: #ffa294 } 
		.s4 { fill: #ffffff } 
		.s5 { fill: #9c5043 } 
		.s6 { fill: #8c4238 } 
		.s7 { fill: #e27b6d } 
		.s8 { fill: url(#g1) } 
		.s9 { fill: url(#g2) } 
		.s10 { fill: #ff6a68 } 
		.s11 { fill: #ffcfe9 } 
		.s12 { fill: #a4a2a6 } 
		.s13 { fill: #908c93 } 
		.s14 { fill: #d0d2d3 } 
		.s15 { fill: #f0f1f1 } 
		.s16 { fill: #7b94a9 } 
		.s17 { fill: #ffad12 } 
		.s18 { fill: #8f706d } 
		.s19 { fill: #60413d } 
		.s20 { fill: #58595b } 
		.s21 { fill: #434447 } 
		.s22 { fill: #400705 } 
		.s23 { fill: #470c07 } 
	</style>
	<g id="_Artboards_">
	</g>
	<g id="BG">
		<path id="&lt;Path&gt;" class="s0" d="m823 345.5c-84.5 28.5-180.6 68.9-204.1 154.9-19.4 71.3 19 155.1-20.2 217.7-38 60.8-123.1 63.3-192.4 81.8-116.4 31.2-213.6 133.9-227 253.7-12.6 113.6 47.7 225.5 131.6 303 83.9 77.6 189.3 127 293 175.1q148.4 69 296.9 138c49.7 23.1 101.3 46.6 156.1 47 105.2 0.7 191.3-81.9 291.9-112.6 86-26.2 176.7-13.1 264.9-21.7 198.2-19.3 436.5-108.4 528-300.2 20.7-43.3 32.4-90.3 49.9-135 24.7-62.9 60.7-121.1 80.9-185.5 46.9-149.5-4.3-324.8-124.3-425.6-55.4-46.6-123.1-77.5-193.7-93.7-14.5-3.3-29.9-6.3-41.1-16.1-8.9-7.6-14.1-18.5-19.7-28.8-50.2-91.3-149.4-149.2-252.3-165.7-102.8-16.4-208.8 4.6-306 42-81.2 31.3-146.3 48.1-233.2 35.8-100.1-14.1-183.8 3.7-279.2 35.9z"/>
	</g>
	<g id="Layer 1">
		<g id="&lt;Group&gt;">
			<g id="&lt;Group&gt;">
				<path id="&lt;Compound Path&gt;" class="s1" d="m1691.3 640.5c-5.7-10.8-2.8-13.5 0.2-25.3 3.6-13.4 4.1-27.9 5.3-41.7 2.2-25.5 3.8-50.7-5.5-75-1.1-3.1-3.1-4.9-5.4-5.7-0.3-9.3-1.8-18.2-5.3-27.2-6.3-43.6-18.1-83.7-45.1-121.9-2.6-3.6-6.5-4.6-10.2-3.9-4.3-7.4-9.2-14.4-15.1-20.6-11.1-21.3-27.5-38.8-48.5-52-1.4-0.9-2.7-1.4-4.1-1.6-12.1-14.5-24.2-29.7-39.4-40.8-16.1-11.8-40.9-13.3-53.9-27.9-11.9-13.5-18.6-22.2-37-28.1-44.2-14.2-94.6-23.2-140.8-26.8-40.7-3.2-76.5 2-109.9 23.4-51.2-6.9-110.8 27.6-151.5 52.4-55.9 34.2-103.8 78.1-137.5 134.7-27.1 45.3-51 103.5-49.7 157.3 0.1 7.1 2.6 14.6 2.4 21.6-0.3 11.8-5.5 17.5-9.9 27.6-5.5 12.3-8.6 25.7-9.6 39.1-2 26.7 4.9 51.9 18.7 74.7 1.9 3.2 6.3 3.8 9.5 2.7 9.6-3.2 29.1-4 36.5-12.9 1.7-2.1 1.7-4.9 2.9-7.1 6.4-11.4 8.4-20.8 19.2-30.2 28.5-24.9 58.8-48.4 89-71.1 57-42.6 117.6-78.5 184.6-101.8 16.1 1.8 33.3-0.9 49.3-1.1 26.7-0.2 52.9 1.5 79.4 4.7 23.5 2.8 47.5 5.4 70.7 10.2 28.9 5.9 53.3 19.4 78.2 34.7 17.8 11 36.5 23.2 48.1 41 10.4 15.9 13.5 35.1 22.9 51.4 9.9 17.1 25.3 30 35.8 46.7 15.2 23.9 19.1 52.3 23.2 79.9 0.6 4.1 3.2 6.6 6.3 7.6-0.7 1.3-1.4 2.5-2 3.7-2.7 5.2 3.3 9.5 7.9 8.2 20.4-6.2 32.6 6 45.9 17.5 3.6 3.2 9.8 2.2 12.6-1.5 24.9-33.5 53.6-73.5 31.8-114.9z"/>
			</g>
			<g id="&lt;Group&gt;">
				<path id="&lt;Compound Path&gt;" class="s2" d="m1644.2 758.3q-0.3-0.6-0.6-1.3c-0.6-1.2-1.2-2.5-1.9-3.7-0.1-0.2-0.2-0.3-0.3-0.5-0.3-0.5-0.5-0.9-0.7-1.4q-0.1 0.1-0.2 0.1c-2.7-3.2-6.9-3.7-10.1-2.4-1.3-1.5-2.6-3.1-4-4.5-9.4-8.9-25.5-7.5-34.8-15.4 3.2-18.5-3-35.5-9.2-53.1-6.2-17.7-13-35-21.2-51.8-3.5-11.4-7.8-22.6-13.6-33.2-18.2-33-53.7-58.5-81.5-83.3-31-27.7-66.5-37.4-106.8-45.6-38.3-7.8-78.5-15.3-117.3-8.8-62.4 0.2-124.1 17.3-177.2 51.3-34.6 22.1-63.8 51.3-92.5 80.4-28.9 29.4-56.8 62.7-94.3 80.3-42-1.5-59.4 67.3-55.1 104 3.1 27 13.7 53.8 34.2 71.9 20.4 18.1 45.1 39 71.9 48.3 12.5 19.7 19.7 43.8 30.8 63.9 12.3 21.9 29 41 47.8 57.5 45.3 39.4 103.2 60.2 159.8 77.8-3.1 19-9.9 40.7-33.2 40.2-6.4-0.2-12.8 4.3-11.7 11.5 12.2 79.7 84.8 135.5 165.7 117.1 35-7.9 69.6-30.5 84.1-64.4 5.8-13.5 9.9-32 2.7-45.6-3.9-7.4-10.5-11.2-17-15.8-14.4-10.3-23.9-22.6-25.7-40.1 45.1-12.4 91-25.5 128.8-54.2 31.9-24.3 54.5-57.8 74.3-92.2q0.2-0.1 0.5-0.1c42.8-12.9 78-36.2 99.6-75.2 20.2-36.5 26.8-74.2 8.7-111.7z"/>
			</g>
			<g id="&lt;Group&gt;">
				<path id="&lt;Compound Path&gt;" class="s2" d="m879.8 1302.3c-3.1-6.7-11.2-9.4-17.4-4.9-15.4 11-53.7-10.1-69.6-15.8-21.9-7.9-43.1-16.4-59.4-33.7-1.9-2-4.2-3.1-6.6-3.4 0.4-1.8-1.6-3.8-3.4-2.8-51.4 27.7-87.3 99.7-100.2 154.7-5.8 25-8.6 56.7 7.2 78.9 14.9 21 42.8 41.5 66.2 51.9 58.9 26.4 121.5-14.5 160.7-56.2 18.9-20.1 36.5-40.2 38.3-68.5 2.2-34.2-1.2-68.9-15.8-100.2z"/>
			</g>
			<g id="&lt;Group&gt;">
				<path id="&lt;Compound Path&gt;" class="s2" d="m1720.1 1574.7c-1.6-23.4-14.2-42.5-25.6-62.2-15.8-27.4-28.8-56.8-40.8-86-1.2-3-3.4-4.6-5.8-5.2-1.5-2.7-3-5.2-4.8-7.7-3.6-5.1-13-4.6-15 1.8-6.8 21.8-54.3 33.9-73.6 40.4-20 6.6-40.3 12.2-60.3 18.7-1.3 0.1-2.4 0.6-3.5 1.1-3 1-6 2-9 3-5 1.8-2.7 8.8 2.1 8.5q0.4 0 0.8 0c0.2 1.5 0.8 3 1.8 4.5 16.8 24.9 25.5 54.9 35.6 83.4 2.3 6.5 11.3 9.1 16.6 4.7 12.3-9.9 23.8-22.7 39.5-12.2 11 7.3 19.8 22.7 25.1 34.3 10.8 24.3 12.3 50.8 12.2 76.9 0 8.2 11.6 12.4 17.4 7.5 33.2-27.8 90.9-61.1 87.3-111.5z"/>
			</g>
			<g id="&lt;Group&gt;">
				<path id="&lt;Path&gt;" class="s3" d="m900.6 777.7c-1.7-3.2-3.5-6.3-5.5-9.1-4.6-11.9-13-25.2-25.9-27.4-15.4-2.6-24.7 10.6-24.2 24.6 0.5 14.3 7.1 27.8 17.1 37.7 8.9 8.9 25.4 19.7 38 12.8 14.5-7.9 6.4-27.5 0.5-38.6z"/>
			</g>
			<g id="&lt;Group&gt;">
				<path id="&lt;Path&gt;" class="s3" d="m1582.9 680.8c-7.2-26.7-28.9-38.3-54-45.1-75.9-20.5-140.7-52.4-188.2-117.6-7.3-10.1-23.1-3.2-21.9 8.8q0.5 5.2 1.1 10.5c-19.2-8.4-37-19.3-53-33.2-10.7-9.2-19.7-19.6-28.6-30.5-5.1-6.2-9.3-14.1-17.2-17-20.1-7.5-52.1 4.1-71.9 9.9-25.3 7.3-49.4 18.2-72.2 31.4-45.8 26.3-85.1 62-121.6 99.8-28.9 29.9-71.8 69-44 112.9 3.8 6.1 12.1 0.3 10.3-5.7-9.4-32 18.3-55.9 37.5-76.3 16.4-17.5 33.3-34.7 51.2-50.8 31.8-28.7 66.5-54.9 105.5-72.9 21.4-9.8 43.7-17.2 66.8-21.6q9.3-1.8 18.7-2.9 13-3.8 17.5 7.6c5.9 5 10.6 13.1 15.9 18.7 26.2 27.7 58.5 47.7 94.4 60.1 5.9 2 11.9-0.3 14.8-5 32.6 37.4 73.3 66.9 120.5 84.2 25.9 9.6 65.3 9.9 86.2 28.7 15.8 14.2 13.5 42.2 14 61.5 0.4 18.1 4.6 37.7 4.3 55.3-0.1 4 5.5 5 6.2 0.9 2-11.5 7.5-20.7 9-32.3 1.4-11 1.4-22.2 1.5-33.2 0.3-15.3 1.2-31.3-2.8-46.2z"/>
			</g>
			<g id="&lt;Group&gt;">
				<path id="&lt;Path&gt;" class="s3" d="m1634.3 811.9c-4.5-3.5-9.3-3.8-13.7-2.2-14.1-1.7-26.6 19.7-29.9 31.2-3 10.2-1.3 21.6 7.7 28.2 10.8 7.9 23.3 3 31.6-5.7 6.2-6.5 10.7-15.3 12-24.3 1.2-9.1 0.1-21.2-7.7-27.2z"/>
			</g>
			<g id="&lt;Group&gt;">
				<path id="&lt;Path&gt;" class="s3" d="m1274.3 838.6c-4.7-4.8-13.4-6.2-19.9-4.8-2.8 0.5-6.5 2.2-8.4 4.5-1.6 2.1-2.8 5.8-0.9 8 0.2 0.2 0.3 0.3 0.5 0.4 0.1 3.4 2 6.3 5.3 7.9 6 3 13.6 7.8 20.5 5.1 9-3.6 9-15 2.9-21.1z"/>
			</g>
			<g id="&lt;Group&gt;">
				<path id="&lt;Path&gt;" class="s3" d="m1282.2 981.9c-1.5-3.9-6.3-6-10.2-4.3-5.4 2.2-11.1 4.5-16.8 6.2-2.6 0.8-2.6 4.3-0.8 5.8 6.7 5.7 15.6 6.4 23.4 2.5 3.8-1.9 6.1-6 4.4-10.2z"/>
			</g>
			<g id="&lt;Group&gt;">
				<path id="&lt;Path&gt;" class="s3" d="m1335.4 1099.1c-1.8-4.6-6.6-7.4-11.5-6.9-49.2 5.2-97.6 0.5-146.5-5.4-7.3-0.9-13.4 4.2-14.7 11.2-0.8 4-0.7 7.7 0 11-2.4 0.5-4.3 3.1-3.2 5.6 22.8 53.6 201.7 48.4 175.9-15.5z"/>
			</g>
			<g id="&lt;Group&gt;">
				<path id="&lt;Path&gt;" class="s3" d="m885.6 1329c-0.7-4.6-1.7-9.3-3.1-14-2.1-7.3-9.1-8.1-14.4-5.3q-0.1 0-0.2-0.1c-0.8-0.5-2 0.3-2.1 1.2q0 0.3 0 0.5c-2.5 2.2-4.2 5.3-4 8.9 0.3 5.3 0.2 10.5 0 15.6-5.2 19.1-9.7 38.4-15.8 57.4-7.4 23-16.9 45.2-25.2 67.8-5.5 12.7-10.8 25.5-15 38.7-2.3 6.9 5.7 11.2 10.6 6.2 29.9-29.9 68.5-55.1 75-100.1 3.1-21.3 5.1-54.3-5.8-76.8z"/>
			</g>
			<g id="&lt;Group&gt;">
				<path id="&lt;Path&gt;" class="s3" d="m720.1 1480.7c-18.3-13.1-68.7-20.9-67 14.4 0.7 14.3 12.6 24.4 25.3 29.1 5.8 2.1 13.9 4 21.7 3.8 11.3 3.2 24.2-1.7 29.9-12.3 6.7-12.4 1.2-27.1-9.9-35z"/>
			</g>
			<g id="&lt;Group&gt;">
				<path id="&lt;Path&gt;" class="s3" d="m1640.8 1417.3c-31.9-1.9-67.3 20.8-92.1 43.5-2.1-0.5-4.5-0.5-7.1 0.2-14.7 4.2-33.4 8.9-46.3 17.4-1.6 1-2.7 2.5-3.4 4.1-3.7-2.7-8.1-4-11.8 0.2-4.4 5-0.8 12.2 1.9 17 2.6 4.5 5.8 8 9.8 11.4 1.2 1 2.7 1.6 4.3 1.9 4.4 12.9 10.7 26.1 16.4 38.4 1.5 6.3 4.1 12.1 8.1 17.3 5.9 7.8 16.2 0.6 14-7.8-1.3-4.8-2.9-9.8-4.8-15-0.6-12.1 3.1-27.5 6.1-35.5 7-18.6 23.6-32.2 38.9-43.9 21.3-16.3 48.3-27.8 66.7-47.4 0.6-0.6 0.1-1.8-0.7-1.8z"/>
			</g>
			<g id="&lt;Group&gt;">
				<path id="&lt;Path&gt;" class="s3" d="m1720 1576.8c-0.6-5-3.2-10.2-7-13.6-2.3-4.7-5.8-8.6-10.5-10.4-26.4-10.3-33.6 39.5-22.9 54.4 8.5 11.7 22.6 9.5 31.1-0.7 6.7-8 10.5-19.3 9.3-29.7z"/>
			</g>
			<g id="&lt;Group&gt;">
				<path id="&lt;Path&gt;" class="s4" d="m1102.4 722.9c-13.2-11.6-30.3 3.6-35.9 15.8-3.2 6.9-3.6 15.3 1 21.8 5.1 7.2 15 9.4 22.9 6.1 7.1-3 12.8-9.6 14.2-17.2 0.5-2.9 0.3-5.9-0.4-8.6 4-5.1 4-12.9-1.8-17.9z"/>
			</g>
			<g id="&lt;Group&gt;">
				<path id="&lt;Path&gt;" class="s4" d="m1433.7 745.5c-5-5.8-12.3-12.2-20.5-8.8-3.3 1.4-4.1 4.4-3.2 7.2-1 0.3-2 0.6-2.9 1.2-1 0.6-1.6 1.5-2.1 2.5-4.7 4.5-7.6 10.9-7.3 18.3 0.6 13 12.2 25.6 25.9 23.3 6.2-1.1 10-5 11.9-9.9 3.1-1.5 5.6-4.3 6.3-7.9 1.7-9.1-2.3-19-8.1-25.9z"/>
			</g>
			<g id="&lt;Group&gt;">
				<path id="&lt;Path&gt;" class="s4" d="m1311 868.8c-29.9 6.3-77.9 17.6-107.2 5.4-5.6-2.3-11.3-0.8-15.2 2.7q-0.1 0-0.1 0.1c-0.8 0.3-1.5 1-2.1 1.7q0-0.1 0-0.2c-9.7 11.9-1.4 39 6.5 50 12 16.7 30.8 29.1 51.3 30.5 19.1 1.3 42.6-0.9 58.6-12.5 19.9-14.5 23.1-39.2 23.8-62 0.3-8.2-5.9-17.8-15.6-15.7z"/>
			</g>
			<g id="&lt;Group&gt;">
				<path id="&lt;Path&gt;" class="s4" d="m1628 763.8c-7-9.3-24.8-9.4-30.7 1.2-1.2 2.1-0.2 5.9 1.9 7.2 3.5 2.2 6.8 2.4 10.7 3.3 4.2 1 8.2 1.9 12.5 1.4 6.2-0.7 9.3-8.1 5.6-13.1z"/>
			</g>
			<g id="&lt;Group&gt;">
				<g id="&lt;Group&gt;">
					<path id="&lt;Path&gt;" class="s4" d="m1631 782q0-0.3 0-0.7 0-0.2-0.1-0.5 0.1 0.6 0.1 1.2z"/>
				</g>
				<g id="&lt;Group&gt;">
					<path id="&lt;Path&gt;" class="s4" d="m1647.2 779.9q-0.2-0.6-0.5-1.2c-0.7-1.4-1.3-2.6-2.6-3.6-1-0.7-2-1.1-3.1-1.5-1.5-0.4-3.1-0.5-4.7-0.1-2 0.4-3.5 1.2-4.6 3.1-0.9 1.5-1 3-0.7 4.7q0-0.7 0-1.3 0 0.7 0 1.3 0.1 0.2 0.1 0.4 0-0.2-0.1-0.4c0.1 1.8 0.4 3.4 1.6 5 0.2 0.3 0.5 0.7 0.7 1q-0.3-0.6-0.6-1.2c0.9 1.8 2.1 3.3 4.1 4.1 1.8 0.7 4.2 0.8 6 0 1.9-0.8 3.7-2.3 4.4-4.3 0.7-2 0.7-4 0-6z"/>
				</g>
				<g id="&lt;Group&gt;">
					<path id="&lt;Path&gt;" class="s4" d="m1631 781.3q0 0 0 0 0 0 0 0 0 0 0 0 0 0 0 0z"/>
				</g>
			</g>
			<g id="&lt;Group&gt;">
				<path id="&lt;Path&gt;" class="s5" d="m961 579.7c-17.8 13.5-34.9 27.4-50.9 43.1-9.3 9.1-28 24.9-21.4 39.6q0 0.1 0 0.1c-0.1 1.5 0.3 3.1 1.3 4.4 2.1 2.8 6.3 3.8 9.2 1.5 2.3-1.8 3.1-5.2 1.9-7.9q-0.2-0.4-0.4-0.8c10.1-6.4 19.1-17.6 26.6-25.2 14.8-14.7 29.1-29.7 43.9-44.4 5.9-5.9-3.7-15.3-10.2-10.4z"/>
			</g>
			<g id="&lt;Group&gt;">
				<path id="&lt;Compound Path&gt;" class="s5" d="m1565.7 637.5c-12.1-29.5-30.1-54.5-53.6-76-3.6-3.3-7.4-6.4-11.2-9.4 1.5-3.1 1.8-6.6-0.1-10.2-7.2-13.9-18.3-17.3-31.4-23.8-10.2-5-16.8-15.1-26.4-20.9-2.4-2.7-4.8-5.4-7.3-8.1-24.1-24.7-50.6-28.1-83.8-31.3-40.7-3.9-83.9-11.4-124.7-6.2-0.4 0.1-0.7 0.3-1.1 0.4-0.6 0-1.2 0-1.6 0.2l-1.1 0.5c-2.1 0.9-3.6 3.6-2.5 5.9 17.8 38.6 61.3 68.4 99.8 83.6 7.1 2.8 16.1-2.9 14.6-11-0.5-3-0.9-5.8-1.2-8.5q3.2 2.6 6.3 5.2c2 20.1 29.1 34.7 51.9 42.8 10.3 8.3 20.8 16.4 31.5 24.1 32 22.8 72.7 51.4 113.2 53.8q0.2 0 0.4 0c3.6 2 7.4 3.9 11.4 5.5 10.1 3.8 21.2-6.2 16.9-16.6z"/>
			</g>
			<g id="&lt;Group&gt;">
				<path id="&lt;Path&gt;" class="s6" d="m1561.4 636.6c-5.3-18.2-18-33-28.7-48.5-11.1-16.1-22.2-32.3-35.3-47-20.2-22.9-43.9-43.4-71.1-57.5-29.2-15.1-61.8-17.8-93.8-22.4-20.6-3-41.1-6.7-61.7-9.5-15.7-2.2-29.7-5.3-44.1 1.7-2.1 1-3.5 4-1.7 6 17.8 20.1 53.1 21.1 78 25.7 32.9 6 69.6 7.7 100.4 21.4 28.8 12.9 54.2 36.9 74 61 21.7 26.3 37 63.3 64.1 84 10.8 8.3 23.3-3.1 19.9-14.9z"/>
			</g>
			<g id="&lt;Group&gt;">
				<path id="&lt;Path&gt;" class="s6" d="m930.2 605.1c-8.3 5.8-15 12.7-21.4 20.6-5.3 6.6-8.5 14.5-12.4 22q0.2-6.3 2.7-12.1c0.2-0.5-0.5-0.7-0.7-0.3q-3.1 6.4-3.3 13.6c0 0.3 0.1 0.5 0.4 0.6q-0.2 0.3-0.4 0.7c-0.3 0.5 0.5 1.1 1 0.7 6.9-5.9 15.1-9.9 22.2-15.6 7.2-5.7 14.5-11.2 21.2-17.6 7.2-6.8-0.8-18.5-9.3-12.6z"/>
			</g>
			<g id="&lt;Group&gt;">
				<path id="&lt;Path&gt;" class="s7" d="m1289.1 511.7c-8.2-9.5-20.1-16.9-29.8-24.9-11.4-9.5-19.2-21.4-28.7-32.7-1.6-1.8-4.9-0.8-4.6 1.9 4 31 28.1 57.2 60.4 60.3 2.3 0.2 4.4-2.6 2.7-4.6z"/>
			</g>
			<g id="&lt;Group&gt;">
				<path id="&lt;Path&gt;" class="s7" d="m1560.9 643.4c-17.2-12.4-38.9-18.1-58.1-27.1-21.1-9.9-42-20.5-62-32.6-36.4-22.2-67.3-52.2-105.3-71.6-1.8-0.9-3 1.5-2.2 2.9 22.7 39.6 63.6 64.3 102.3 86.6 35 20.2 82.2 47.9 123.9 47 2.5 0 3.4-3.8 1.4-5.2z"/>
			</g>
			<g id="&lt;Group&gt;">
				<g id="&lt;Clip Group&gt;">
					<path id="&lt;Mesh&gt;" class="s8" d="m1140.1 883.8c0 64.9-52.6 117.5-117.5 117.5-64.9 0-117.6-52.6-117.6-117.5 0-65 52.7-117.6 117.6-117.6 64.9 0 117.5 52.6 117.5 117.6z"/>
				</g>
			</g>
			<g id="&lt;Group&gt;">
				<g id="&lt;Clip Group&gt;">
					<path id="&lt;Mesh&gt;" class="s9" d="m1577.5 890.7c0 64.9-52.7 117.5-117.6 117.5-64.9 0-117.5-52.6-117.5-117.5 0-65 52.6-117.6 117.5-117.6 64.9 0 117.6 52.6 117.6 117.6z"/>
				</g>
			</g>
			<g id="&lt;Group&gt;">
				<path id="&lt;Path&gt;" class="s10" d="m1011.9 866.6c-2.8-1-5.9-0.1-7.7 2.1q0 0-0.1-0.1c-0.1 0.3-0.2 0.6-0.4 0.9-0.1 0.2-0.3 0.4-0.5 0.7q-0.5 1.2-1 2.4c-0.1 0.3-0.1 0.5-0.2 0.8-0.7 1.7-1.2 3.4-0.8 5.1-0.5 2.7 1.8 4.9 4.6 4.1 2 0.2 3.8-0.6 5.4-2.1 1.7-1.6 3.4-3.1 4.3-5.2 1.4-3.2-0.3-7.5-3.6-8.7z"/>
			</g>
			<g id="&lt;Group&gt;">
				<path id="&lt;Path&gt;" class="s10" d="m1034.4 874.2q-0.5-1.4-1.6-2.4c-0.9-0.9-1.5-1.4-2.8-1.9-1.3-0.5-2.6-0.7-4-0.6-2.5 0.4-4.7 2-5.7 4.4-0.3 0.7-0.5 1.5-0.5 2.3q-0.1 0.1-0.2 0.2-0.2 0.9-0.4 1.7 0 0.8 0 1.7 0.2 0.8 0.4 1.6 0.5 1.3 1.5 2.1 0.5 0.8 1.3 1.1 0.7 0.6 1.6 0.7c1.4 0.3 2.6 0.3 4-0.2q-0.6 0.2-1.2 0.3 0.4 0 0.8-0.1c1.6-0.2 2.9-0.7 4.1-1.5 1.8-1.2 2.8-3.2 3.2-5.3 0.1-0.7 0.1-1.4 0-2.1q-0.1-1-0.5-2z"/>
			</g>
			<g id="&lt;Group&gt;">
				<path id="&lt;Path&gt;" class="s10" d="m1471.3 880.1c-3.6-2.2-8.7-1.5-11.4 2.1-2.2 3-3.8 6.3-4.3 10-0.2 1.3-0.1 2.8-0.2 3.8-0.2 1.3-0.5 2.7-0.7 4.1-0.7 4.2 5 8.2 8.4 5 4.7-4.4 9.8-7.7 12-14.1 1.5-4.2 0.2-8.6-3.8-10.9z"/>
			</g>
			<g id="&lt;Group&gt;">
				<path id="&lt;Path&gt;" class="s10" d="m1487.9 881.3c-2.3-0.8-5.5-0.4-7 1.8-1.1 1.8-2.4 3.3-3.4 5.2-0.1 0.3-0.6 1.2-0.6 1.4q-0.7 1-1.4 1.9c-1.9 2.4-1.6 5.9 0.4 8 2.1 2.1 5.6 2.6 8 0.7 1.8-1.5 3.5-3.2 5-5 1.7-2.3 2.3-4.9 2.6-7.7 0.2-2.5-1.1-5.4-3.6-6.3z"/>
			</g>
			<g id="&lt;Group&gt;">
				<path id="&lt;Compound Path&gt;" class="s4" d="m1646 1392.1c-0.6-1.8-1.6-3.5-2.9-4.8-18.8-27.6-30.1-58.5-43.2-89.5-11.8-27.5-20.9-61.7-39.2-85.5-16.4-21.3-46.8-24.9-70.8-32.4-32.5-10.3-65.1-20.8-96.8-33.4-3.5-7-15-7.7-16.4 1-0.9 1.6-1.5 3.5-1.5 5.5-0.1 29-21.8 59.1-48.6 79.7-70.6 42.2-191.5 10.5-198-88.5-0.4-6.2-7.4-9.4-12.7-7.5-41.3 14.8-84.7 17.6-127.2 27.1-20 4.4-53.5 10.5-61.2 33.4-1.3 3.7-0.1 6.8-0.9 10-3.7 14.8-7.6 22.4-25.2 26.1-7.3 1.5-12.3 1-16.7 3.3-2.7-1.5-6.3-1.2-7.8 2.7-7.1 18.4-12.3 36.9-16.2 56.3-0.7 3.7 1.2 7.9 4.1 10.1 35.3 26.6 32 69.6 24.7 108.6-1.8 9.7 10.7 13.1 16.4 6.9 2.9-3.4 6.2-6.3 9.7-8.8 14.3 33.4 15.8 70.2 17.4 106.3 2 43.8 2.1 88-0.3 131.8-0.5 9.3 11.8 16.4 18.1 7.6 31.7-44.6 60.7-91 85.7-139.7 11.6-22.6 22.4-46.3 29.6-70.8 3-4.4 6.2-8.9 9.5-13.2 26.9-35.9 64.7-44.5 107.5-48.9 80.8-8.2 156.6 4.7 235.8 17.4 3.4 0.5 6.3-0.5 8.6-2.3 12.2 10.7 21.3 23.5 27.2 41.8 6.1 19.3 8.5 35.5 31.3 33.5 27.7-2.5 57.2-16.4 82.6-27 24.3-10.1 46.9-22 66.9-38.9 7.6-1.1 14.4-9.5 10.5-17.9z"/>
			</g>
			<g id="&lt;Group&gt;">
				<path id="&lt;Path&gt;" class="s11" d="m873.4 1298.2c-1.5-1.1-3.6 0.1-3.4 2 1.6 16.1 10.3 31.3 15.5 46.5 6.5 18.8 10.5 37.6 11.1 57.5 0.3 12.3 21.5 12.6 21.8 0.1 0.9-35.9-15.4-83.6-45-106.1z"/>
			</g>
			<g id="&lt;Group&gt;">
				<path id="&lt;Path&gt;" class="s11" d="m1059 1316.1c-0.3-0.5-1.3-0.4-1.5 0.2-7.2 24.8-7.1 51.2-12.9 76.4-7.5 32.5-20.6 63-34.9 93-12.8 26.9-27.1 53.1-40.4 79.7-12.5 25.1-31.1 52.9-35.1 80.8-0.9 6 7.2 12.1 12.2 7.3 21.3-20.5 33.2-52.3 47-78.1 16.2-30.5 32.4-61.4 46.3-93 20.3-46.3 47.5-118.5 19.3-166.3z"/>
			</g>
			<g id="&lt;Group&gt;">
				<path id="&lt;Path&gt;" class="s11" d="m1408.5 1313.8c-3 8.8-4.9 24.3-10.6 31.6-10.4 13.3-25.9 9.4-39.8 9.4-28.1-0.2-56.2 0.6-84.3 1.1-30.7 0.6-61.4 0.5-92.1-1.4q-10.5-0.6-21-1.4-15.6 1.5-16.2-13.1c-6.8-10.4-9.9-26.3-15.2-37.8-0.5-1.1-2-0.6-2 0.5 0.1 21.7-6 61.1 20.4 68.2 37.9 10.3 84.4 5.1 123.4 5.2 23.6 0 47.3-0.2 71 0.2 16.7 0.2 37.8 4.6 54.3 1.9 25.5-4.2 25.7-40.3 25.9-60.7 0.1-7.4-10.9-12.2-13.8-3.7z"/>
			</g>
			<g id="&lt;Group&gt;">
				<path id="&lt;Path&gt;" class="s11" d="m1528.9 1443.6c-38-21-41.7-80.5-49.4-118.6-0.8-3.6-6.5-5.3-7.8-1.1-6.1 20.1-6 49 0.9 75.6-2.7 2.3-4.4 5.7-4.2 9.2 1.1 19.1-1.1 42.9 5.4 61.1 1.3 3.5 5 6.6 8.8 6.9 16.1 1.1 32.1-6.8 46.2-13.9 8.5-4.2 8.2-14.8 0.1-19.2z"/>
			</g>
			<g id="&lt;Group&gt;">
				<path id="&lt;Compound Path&gt;" class="s12" d="m1538.5 1859.9c0-1.1 0-2.1-0.1-3.3-2.9-20.4-7.3-40.5-11.4-60.6-3-14.8-3.7-37.2-11.1-50.5-6.4-11.4-15.8-12.9-27.5-18-6.3-2.7-74.6-37.9-50.7-54.4 5-3.4 5.3-10.3 2.2-15-10-15.5-0.5-67.1 14.6-76 10.3-6.1 19-6.6 24.1-15.9 5.6-0.5 10.5-4.6 8.9-11.8-27-122.1-19.2-246-4.6-369.3 0.8-6.1-3.4-10.8-9.2-12.1-12.3-2.8-21.8-7.4-31.3-15.3-8.5-7.2-20.4 2.8-16.8 12.6 9.9 27-2.7 56.2-4.9 83.7-2.3 27.5 0.4 55.1-1.7 82.6-0.6 7.9-1.3 15.9-3 23.7-2.4 10.4-3.3 17.3-12 20.9-12.1 5.1-37.9 0.4-50.5 0.2-31.8-0.4-63.5-2.2-95.2-5-26.4-2.3-52.9-5.1-79.3-7.7-11.2-1.1-28.8 0.6-39.1-3.8-16.5-7-12.9-27.2-14.4-41.9-6-57.7-18.1-113.2-33-169.1-1-4-6.2-6.5-10-5.9-11.9 1.6-22.7 4.2-33.8 7.8-3.6-4.9-12-1.7-11.1 4.4 6.8 44.7 17.7 86.8 21.5 132.1 4.2 51.1 11.7 102.6-3.9 152.7-27.8 88.6-79.5 169.5-128.7 247.2-4.2 6.7-1.5 13.8 3.5 17.3-14.2 40.4-8.2 76.7-17.2 118.3-0.9 4.6-22.7 46.3-18.1 47.7 106.4 32.6 229.9 24.3 341 28.9 54 2.2 108 2.2 161.9 2.1 48.3-0.1 102.9-0.3 145.6-26.2 10-6.1 4.1-17.8-4.7-20.4z"/>
			</g>
			<g id="&lt;Group&gt;">
				<path id="&lt;Path&gt;" class="s13" d="m1538.5 1859.9c0-1.1 0-2.1-0.1-3.3-2.9-20.4-7.3-40.5-11.4-60.6-3-14.8-3.7-37.2-11.1-50.5-6.4-11.4-15.8-12.9-27.5-18-6.3-2.7-74.6-37.9-50.7-54.4 5-3.4 5.3-10.3 2.2-15-10-15.5-0.5-67.1 14.6-76 10.3-6.1 19-6.6 24.1-15.9 5.6-0.5 10.5-4.6 8.9-11.8-27-122.1-19.2-246-4.6-369.3 0.8-6.1-3.4-10.8-9.2-12.1-3.4-0.8-6.5-1.7-9.4-2.7 2.4 30.2-0.8 60.1-5.7 89.9-10.7-1.7-22.7 1.2-32.2 5.2-0.3 0.2-0.3 0.6 0 0.7 9.1 3.5 19.5 7.8 29.6 9.5-6.1 33.5-13.6 66.9-17.2 100.6-3.4 32.1-7.8 64-13.7 95.7-6.2 32.8-12.3 65.3-17 98.4-4.6 32.5-10.6 63.9-22.1 94.8-11.1 29.6-25 58.2-40.2 86-28.7 52.8-58.9 108.4-103.8 149.2q-2.3 2.1-4.6 4.1c53.4 2.2 106.8 2.2 160.2 2.1 48.3-0.1 102.9-0.3 145.6-26.2 10-6.1 4.1-17.8-4.7-20.4z"/>
			</g>
			<g id="&lt;Group&gt;">
				<path id="&lt;Path&gt;" class="s13" d="m1209.2 1628c-1.5-20.4 0.9-42.3-6.2-61.8-0.1-0.4-0.8-0.5-1-0.1-24 34.5-17.7 101.5-2.5 138.3 3.9 9.3 16.1 5 16.1-4.1-0.3-24.2-4.5-48.2-6.4-72.3z"/>
			</g>
			<g id="&lt;Group&gt;">
				<path id="&lt;Path&gt;" class="s13" d="m1396.4 1539.3c-41.1 1.4-82.1 6.6-123.2 8.3-21.6 0.8-69.4 8.7-78.2-21.4-3-10.3 1.5-25.4 1.9-35.8 0.5-10-0.4-19.9-0.1-29.9 0-1-1.3-1.4-1.7-0.5-15.6 31.8-38.4 91.2 10.9 105.3 25.9 7.4 59.1 0.7 85.5-0.3 35.6-1.3 72-1.4 107.3-6.4 12.6-1.8 9.9-19.7-2.4-19.3z"/>
			</g>
			<g id="&lt;Group&gt;">
				<path id="&lt;Path&gt;" class="s13" d="m1109 1302.9c-7.3 0.5-14 3.4-20.7 6.1-2.5 0.9-6.2 3.3-8.8 3.4-2.6 0-5-1.6-7.3-2.3-0.3-0.1-0.6-0.1-0.8 0.2-4.1 6.5-0.6 13.8 6.9 15.8 4.9 1.3 10.7 0 15.7-0.5 6.8-0.6 13.4-1.2 19.7-3.9 10.4-4.5 6.2-19.4-4.7-18.8z"/>
			</g>
			<g id="&lt;Group&gt;">
				<path id="&lt;Path&gt;" class="s13" d="m1100.9 1242.8c-5.8 2.3-11.5 4.9-17.4 6.9-5.5 1.9-11.2 2.7-16.1 6-3.4 2.2-2.7 8.1 1.2 9.4 11.5 4.1 28.1-0.9 39-5.4 10.8-4.5 4.1-21.4-6.7-16.9z"/>
			</g>
			<g id="&lt;Group&gt;">
				<path id="&lt;Compound Path&gt;" fill-rule="evenodd" class="s14" d="m1135.8 1274.5c-0.6 12.2-5.4 21.2-17.4 25.5-7.4 2.6-15.6 2.8-23.3 3.7-8.8 1.1-17.8 3.4-26.7 3-12.6-0.4-20.8-7.5-24.8-19.3-3.9-11.4-9.1-28.4-4.8-40.2 3.5-9.2 11-13.7 19.4-9.9 20.1-12.4 53-22.1 68.8-4.8 9.6 10.4 9.3 28.8 8.8 42zm-21.7-29.8c-6.3-8.2-12.8-5.7-22-3.6-11 2.5-21.2 4.7-31.8 5.1q-0.2 0.2-0.4 0.4c-6.2 5.8-1.9 17.9-0.6 24.9 2.1 10.7 3.9 17.4 16.2 16.6 12.2-0.8 38.8 1 42.7-13.2 2.6-9.6 1.8-22.7-4.1-30.2z"/>
			</g>
			<g id="&lt;Group&gt;">
				<path id="&lt;Compound Path&gt;" fill-rule="evenodd" class="s14" d="m1489.3 1295.8c-4.4 11.9-13.7 23.8-27.2 25.4-8.3 1-16.9-2.9-24.6-4.9-6.9-1.7-14.3-2.3-20.9-5.1-14.5-6.3-15.5-20-13.8-33.9 1.4-12.4 1.4-31.7 12.6-40 7.4-5.6 21.5-5.9 30.5-1.4 6 0.2 11.9 0.8 17.4 1.4 12.4 1.3 29.2 1.1 33.2 15.7 3.4 12.4-2.9 31-7.2 42.8zm-14.5-34.9q-4.4-0.4-8.7-1.1c-13.1-1.7-28.9-1.5-41.9-6.5-1.9 5.7-1.3 14.6-1.9 18.5-0.6 4.4-2.9 10.5-2.2 15 1.4 9.6 7 9.1 14.5 10.8 6.9 1.6 17.9 5.2 24.9 3.1 10.4-3.2 12.5-17.5 14.6-26.4 0.5-2.3 3.5-9.5 2.5-11.8q2.8-2.3-1.8-1.6z"/>
			</g>
			<g id="&lt;Group&gt;">
				<path id="&lt;Path&gt;" class="s15" d="m1063.5 1233.5c-9.1 1.1-15.7 10-20.7 16.8-0.4 0.5 0.1 1.2 0.7 1 7.6-2.9 18.1-5.5 22.9-12.5 1.6-2.3 0-5.7-2.9-5.3z"/>
			</g>
			<g id="&lt;Group&gt;">
				<path id="&lt;Path&gt;" class="s15" d="m1133.9 1276.6c-5.2 2.1-8.3 6.4-12.2 10.3-3.8 4-6.8 8.5-10.2 12.8-0.3 0.4 0.1 0.9 0.6 0.8 5-1.7 10.1-3.3 14.6-5.9 4.8-2.8 10.3-5.2 13.2-10 2.5-4.1-0.8-10.1-6-8z"/>
			</g>
			<g id="&lt;Group&gt;">
				<path id="&lt;Path&gt;" class="s15" d="m1433.7 1233.6c-10.2 1.4-19.1 11-26.2 17.7-1.7 1.6-0.3 5.1 2.2 3.9 4.6-2.1 9.3-4.1 14.1-5.9 4.7-1.7 9.8-3 13.6-6.4 3.7-3.2 1.7-10-3.7-9.3z"/>
			</g>
			<g id="&lt;Group&gt;">
				<path id="&lt;Path&gt;" class="s15" d="m1480.5 1300.4c-6.7 2.7-10.6 8.8-16.9 12.1-0.7 0.4-0.3 1.6 0.4 1.2 6.4-3.3 13.7-3.5 19.4-8.1 2.6-2.1 0.3-6.6-2.9-5.2z"/>
			</g>
			<g id="&lt;Group&gt;">
				<path id="&lt;Path&gt;" class="s15" d="m1054.5 1190.9c-2.7-11.4-5.4-23.8-12.7-33.3-0.4-0.5-1.3-0.2-1.4 0.4-2.6 12.1 0.5 25.2 3 37.2 2.6 12.4 4.7 25.5 10.3 37 1.5 3 6.9 3.1 7.1-0.9 0.4-13.5-3.1-27.3-6.3-40.4z"/>
			</g>
			<g id="&lt;Group&gt;">
				<path id="&lt;Path&gt;" class="s15" d="m1072.6 1314.2c-0.5-1.4-2.9-1.2-2.9 0.3-0.6 26.1 0.4 52 0.4 78-0.1 36.8-12.7 68.6-29.2 100.9-14 27.5-32.5 52.4-48.3 78.8-16.3 27.3-28 56.7-42.9 84.8-0.4 0.6 0.7 1.2 1.1 0.6 17.8-26.8 38.1-51.4 54.6-79.1 19.1-32 37.8-64.5 56.4-96.8 28.5-49.6 27.9-114.3 10.8-167.5z"/>
			</g>
			<g id="&lt;Group&gt;">
				<path id="&lt;Path&gt;" class="s15" d="m1410.7 1458.9c-30.1-1-60.3 0.3-90.4-0.4-27.3-0.7-55-4.3-82.3-2-10.3 0.8-32.3 1.5-39.4 11.2-8.9 12.1-3.3 49.1-0.7 62.9 0.1 0.2 0.5 0.3 0.5 0 2.2-19.2-3.7-52.8 16.6-63.5 17.8-9.3 52.8-2 72.1-1.3 41 1.3 83 2.1 123.6-4.2 1.5-0.2 1.7-2.7 0-2.7z"/>
			</g>
			<g id="&lt;Group&gt;">
				<path id="&lt;Path&gt;" class="s15" d="m1311.4 1712.9c-18-2-35.2-5.5-52.7-10.5-15.3-4.4-19.1-12.9-23.4-27.7-8.9-31.4-15.3-63.7-20-95.9-0.4-2.5-3.9-2-3.8 0.4 0.9 23.3 2.7 46.3 6.8 69.2 2.8 15.4 4.1 34.9 11.5 48.8 13.2 25 57.5 20.5 80.9 20.7 3.2 0 4.1-4.7 0.7-5z"/>
			</g>
			<g id="&lt;Group&gt;">
				<path id="&lt;Path&gt;" class="s13" d="m1064.5 1746.9c-3.3-2.5-9.4-2.4-11.7 1.5-2.2 3.5-4.7 6.8-7.2 10.2-2.5 3.3-4 7.1-6.5 10.5-2.2 3 0.9 7.7 4.6 6 3.9-1.7 8.7-3.3 12.1-6.1 3.7-3.1 7-6.7 10.1-10.4 3-3.4 2-9-1.4-11.7z"/>
			</g>
			<g id="&lt;Group&gt;">
				<path id="&lt;Path&gt;" class="s13" d="m1094.2 1749.2c-3.4-2.6-8.3-1.9-11 1.4q-3.3 4-6.5 8.1c-2.5 3.1-3.6 6.2-4.4 10.1-0.7 3.7 3.3 6.2 6.6 5.1 3.8-1.3 6.6-3.1 9.5-6.1q3.6-3.8 7.2-7.6c2.9-3.1 1.7-8.6-1.4-11z"/>
			</g>
			<g id="&lt;Group&gt;">
				<path id="&lt;Path&gt;" class="s13" d="m1311.8 1614.4c-2-5.3-8.2-5.1-11.6-1.7-3.4 3.4-4.6 8.5-6 12.9-1.6 5.2-2.3 9.5-1.5 14.8 1.1 6.2 9.8 9.6 13.8 3.9 3.3-4.8 4.7-9.2 5.5-14.9 0.7-5 1.5-10.2-0.2-15z"/>
			</g>
			<g id="&lt;Group&gt;">
				<path id="&lt;Path&gt;" class="s13" d="m1335.2 1630.6c-0.8-2.1-3-3.5-5.2-3.5-1 0-1.9 0.2-2.8 0.7-1.1 0.7-1.8 1.6-2.4 2.7-0.5 0.9-0.7 2.2-0.9 3.1-0.4 1.5 0 3.1 0.6 4.4 0.9 1.8 2.4 3.2 4.5 3.4 1.8 0.3 4-0.5 5.1-2.1 0.4-0.6 0.9-1.2 1.2-1.9 0.5-1.2 0.6-2.3 0.5-3.6-0.1-1.1-0.2-2.1-0.6-3.2z"/>
			</g>
			<g id="&lt;Group&gt;">
				<path id="&lt;Path&gt;" class="s13" d="m1109.1 1563.3c-2.3-2.9-4.7-6-7.8-8.2-2.9-2.1-6.5-4.7-10-5.3-3.4-0.5-6.9 2.8-6.3 6.3 0.7 3.5 3.1 6.9 5.2 9.8 2.2 3.1 5.3 5.5 8.3 7.8 6.6 5 15.8-3.6 10.6-10.4z"/>
			</g>
			<g id="&lt;Group&gt;">
				<path id="&lt;Path&gt;" class="s13" d="m1119.6 1531.8c-0.4-0.8-0.8-1.6-1.3-2.3-0.5-0.8-1.2-1.4-2.1-1.9-0.9-0.6-1.8-1.1-2.9-1.3-0.6 0-1.3 0-1.9 0q-0.5 0-0.9 0c-2 0.1-4.2 2.2-4.2 4.2q0 0.4-0.1 0.8c0 0.6-0.1 1.3 0 1.9 0.2 1.1 0.6 2 1.2 3q0.7 1.2 1.8 2c0.7 0.6 1.6 1 2.5 1.5q0.7 0.2 1.5 0.4 0.7 0 1.5 0c1.4-0.2 2.5-0.8 3.5-1.7 0.8-0.8 1.3-1.7 1.6-2.8 0.3-1.1 0.4-2.7-0.2-3.8z"/>
			</g>
			<g id="&lt;Group&gt;">
				<path id="&lt;Path&gt;" class="s13" d="m1357.6 1403.9c-4.8-0.3-8.6 2.7-11.8 6-2.9 3-4.3 6.7-4.7 10.9-0.6 7.2 9.7 10.5 12.6 3.4q0.4-0.9 0.8-1.8c0.1-0.1 0.2-0.3 0.3-0.4 0.7-0.9 1.2-1.9 1.8-3 0.1-0.2 0.1-0.3 0.2-0.3 0 0 0-0.1 0.1-0.2q0.5-0.7 1.1-1.5 0.2-0.2 0.5-0.5c0 0 0 0 0 0 1.6-1.4 2.7-2.5 3.8-4.4 1.8-3.2-1.2-8-4.7-8.2z"/>
			</g>
			<g id="&lt;Group&gt;">
				<path id="&lt;Path&gt;" class="s13" d="m1388.3 1411.9c-0.2-0.8-0.7-1.6-1.4-2.1q-0.8-0.6-1.9-0.8-0.7-0.1-1.5 0.1-0.7 0.1-1.3 0.6c-0.4 0.2-0.9 0.4-1.2 0.7q-0.4 0.4-0.9 0.8 0 0.1 0 0.1c-0.4 0.4-0.5 0.8-0.7 1.2q-0.1 0.3-0.3 0.6c-0.2 0.6-0.3 1.4-0.3 2 0.2 0.9 0.6 1.6 1.2 2.2 0.5 0.6 1 0.9 1.7 1.1 0.8 0.2 1.7 0.2 2.5-0.1l0.6-0.3c0.4-0.2 0.8-0.3 1.2-0.6 0.5-0.4 0.9-0.9 1.2-1.4q0.5-0.8 0.9-1.6 0.1-0.5 0.3-1 0.1-0.8-0.1-1.5z"/>
			</g>
			<g id="&lt;Group&gt;">
				<path id="&lt;Path&gt;" class="s13" d="m986 1693.1c-0.4-1.2-1.1-2.2-1.8-3.3-0.1-0.2-0.3-0.3-0.5-0.4q-0.4-0.8-0.8-1.5c-0.5-0.7-0.8-1.4-1.3-2.1-0.9-1.4-2.5-2.2-4-2.9-2.9-1.3-7.1 0.2-8.1 3.4q-0.3 0.9-0.6 1.9c-0.6 2.2 0.1 4 0.7 6.1 0.4 1.3 0.7 2.6 1.2 3.9 0.9 2.3 2.6 4.1 4.8 5.1 3.3 1.4 7.2 0.5 9.4-2.3 1.7-2.2 2.1-5.3 1-7.9z"/>
			</g>
			<g id="&lt;Group&gt;">
				<path id="&lt;Path&gt;" class="s13" d="m1001.5 1671.5q-0.2-0.9-0.8-1.7l-1-1c-0.6-0.5-1.7-1-2.5-1-0.7-0.1-1.4-0.1-2.1 0.2-0.4 0.1-0.6 0.2-0.9 0.4q-1 0.4-1.6 1.3-0.7 0.8-0.8 1.8-0.4 0.9-0.2 1.9 0.1 0.6 0.3 1.3 0.4 0.9 1.1 1.6 0.7 0.8 1.7 1.2 0.9 0.4 1.9 0.3 1 0.1 1.9-0.3c1.2-0.6 2.3-1.5 2.8-2.8q0.1-0.6 0.3-1.2 0.2-1-0.1-2z"/>
			</g>
			<g id="&lt;Group&gt;">
				<path id="&lt;Path&gt;" class="s13" d="m1250.7 1767.3c-1.8-4-8.4-9.4-12.2-4.4-4 5.3 0.5 12.3 1.4 17.8 0.5 2.8 2.8 5.1 5.8 5 3.1 0 5-2 5.7-4.9 1.2-4.5 1.2-9.2-0.7-13.5z"/>
			</g>
			<g id="&lt;Group&gt;">
				<path id="&lt;Path&gt;" class="s13" d="m1229.1 1779c-8.1 0-6.5 12.5 1.6 12.5 8.1 0 6.5-12.5-1.6-12.5z"/>
			</g>
			<g id="&lt;Group&gt;">
				<path id="&lt;Path&gt;" class="s13" d="m1147.7 1870.7q-3.7-6-7.4-12.1c-3.8-6.3-14.9-0.2-11.3 6.4q3.3 6.2 6.6 12.4c2 3.7 5.9 5.7 9.8 3.5 3.9-2.2 4.4-6.6 2.3-10.2z"/>
			</g>
			<g id="&lt;Group&gt;">
				<path id="&lt;Path&gt;" class="s13" d="m1160.8 1863.7c-0.2-0.7-0.3-1.7-0.6-2.4-0.7-1.6-2-2.6-3.5-3.2-1.2-0.5-2.4-0.6-3.6-0.7-2.3-0.1-4 1.5-3.9 3.8 0.1 1.2 0.2 2.4 0.7 3.5 0.6 1.6 1.6 3 3.2 3.6 0.8 0.3 1.6 0.5 2.4 0.6 2.8 0.6 5.9-2.3 5.3-5.2z"/>
			</g>
			<g id="&lt;Group&gt;">
				<path id="&lt;Path&gt;" class="s16" d="m1170 169.3c-0.2-2.2-2.9-3.3-4.6-2-36.6 27.3-50 92.6-61.4 134.5-6.4 23.2-11.9 46.6-16.4 70.3-4.4 22.8-13 50.3-3.2 72.4 2.4 5.4 9.7 6.8 13.5 2 13.1-17.1 13-40.3 16.7-60.9 5-27.6 11.2-55.1 18.8-82.1 7.1-25.1 15.5-49.8 23.6-74.6 6.4-19.3 14.8-39 13-59.6z"/>
			</g>
			<g id="&lt;Group&gt;">
				<path id="&lt;Path&gt;" class="s16" d="m1522.4 349.9c-2.8-42.7-6.1-103.1-37.9-135.3-1.8-1.8-4.4 0-4.9 2-4.2 19.8 0 39.4 2.8 59.2 3.3 24.3 6.3 48.7 7.7 73.2 1.3 24.7 1.1 49.5-0.5 74.2-1.2 19.7-9.1 41.5 0.5 59.5 2.7 5 10.2 9.4 15.4 4.3 16.3-15.7 14.8-37.6 16.5-59.4q3-38.8 0.4-77.7z"/>
			</g>
			<g id="&lt;Group&gt;">
				<path id="&lt;Path&gt;" class="s16" d="m1138.7 454.9c-38.4 1-79.3-0.2-116.4 11.1-35.2 10.7-69 26.6-99.1 47.8-15.6 11-30.5 23.5-44 37.3-40.2 36.8-71.3 85-31.5 121.2 4.9 4.4 10.8 1.9 13.6-2.7 5.8 2 12.7 1.2 20.6-3.7 3.6-2.3 5.6-7.4 4.9-11.5-1.3-8.4-5.2-14.5-10.1-21.5-11.1-16.1-9.8-27.5 2.4-42.7 19.7-24.7 43.3-45.9 69.7-63.2 27-17.6 56.3-30.6 86.7-40.7 35.1-11.7 66.5-24.1 103.5-29.1 1.5-0.2 1.2-2.3-0.3-2.3z"/>
			</g>
			<g id="&lt;Group&gt;">
				<path id="&lt;Path&gt;" class="s17" d="m1517.1 510.5c0-0.2-0.2-0.2-0.3 0q0 1.3-0.1 2.6c0 0.4 0.5 0.4 0.5 0z"/>
			</g>
			<g id="&lt;Group&gt;">
				<path id="&lt;Path&gt;" class="s16" d="m1640.1 618.1c-27.4-45.8-65.1-73-111-97.6-0.4-0.2-0.9 0.5-0.6 0.8 26.5 27.8 55.6 57.5 78.4 88.3 12.7 17.2 23 35.9 29.4 56.4 1.2 3.9 3 10.3 4.9 17.7-5.7-3-13.5-2.1-15.6 5.3-3 10.5-7.1 18.4-15.2 26-4.5 4.2-6.9 13.1-0.2 17.2 12.3 7.5 25.7 17.3 39.8 20.5 4.2 0.9 7.7-2.2 9.5-5.5 22.4-40.2 2.1-93.3-19.4-129.1z"/>
			</g>
			<g id="&lt;Group&gt;">
				<path id="&lt;Path&gt;" class="s18" d="m1115.5 463.1c-35.6 6.8-71.5 19.1-103.8 36.9-0.7 0.3-1.4 0.5-2.1 0.8-25.3 10-50.7 21.6-73.4 36.9-20.5 13.8-42.9 30.6-58.4 50.1-3.3 4.1-5.4 8.2-6.6 12.1-0.4-0.2-0.8-0.4-1.1-0.6-3.5-1.9-6.3 3.5-3.4 5.9 1.2 1 2.2 2.1 3.2 3.3 0.2 10 5.6 19.7 12.9 29.7 6.7 9.3 22 0.9 17.6-9.8 0-0.2-0.1-0.3-0.2-0.5 32.5-9.9 58.8-44 84.7-63.9 35.6-27.3 72.9-59.6 112.7-80.4q-0.1-0.1-0.1-0.1c0.9-0.4 1.5-1.3 1.7-2.2 6.4-2.3 12.8-4.7 19.2-7 6.1-2.2 3.7-12.4-2.9-11.2z"/>
			</g>
			<g id="&lt;Group&gt;">
				<path id="&lt;Path&gt;" class="s18" d="m1587.9 589.1c-13.9-15.5-29.4-29.5-45.8-42.5-20.2-23-44.6-44-73.7-50.5-0.7-0.2-1.5 0.7-1.1 1.3 0.3 0.6 0.6 1.1 0.9 1.6-2.1-0.7-4.3-1.3-6.5-1.8-0.9-0.2-1.8 0.9-1.3 1.8 9.5 18 26.2 32.8 43.7 46.7 10.8 11.7 21.9 23.3 31.5 35.6 11.7 14.9 22.6 30.6 32.1 47 5 8.8 8.6 17.6 11.7 26.5-1.1 1.2-1.8 2.8-1.5 4.7 2.8 19.1 10.7 37.1 14.7 56.1 1.4 6.9 9.8 9.8 14.6 4 37.6-45.1 16.1-91.3-19.3-130.5z"/>
			</g>
			<g id="&lt;Group&gt;">
				<path id="&lt;Path&gt;" class="s19" d="m1092.2 469.6c-45.4 5.3-89.4 23.3-128.7 46.3-34 19.9-86.7 52.6-98.7 92.8-0.7 2.6 1.6 6.1 4.6 4.7 17.9-8.7 31.9-25.4 46.9-38.3 16.4-14.1 33-27.6 51.2-39.4 39.7-25.9 82.5-41.7 127.2-56.6 5.4-1.8 3-10.1-2.5-9.5z"/>
			</g>
			<g id="&lt;Group&gt;">
				<path id="&lt;Path&gt;" class="s19" d="m1582.3 577.3c-31.9-33.2-73.4-62-117.5-75.9-2.9-0.9-4.9 2.5-2.7 4.6 29.3 28 65.9 47 95.3 75 14.1 13.3 26.8 28.5 37 45 10.4 16.8 14.5 37.3 26 53 2.9 3.9 8.4 1.9 9.3-2.4 7.8-34.6-25-76.2-47.4-99.3z"/>
			</g>
			<g id="&lt;Group&gt;">
				<path id="&lt;Path&gt;" class="s4" d="m1328.1 146.9c-49.1-5.4-112.8-18.6-151.6 21.3-4.1 4.1 2.9 10.1 7 6.4-21.8 31.3-31.3 77.1-40.1 112-7.3 29.1-10.5 58.8-19 87.8-5.8 19.6-12.4 37.6-7.8 58.2 0.6 2.7 4.5 3 5 0.1 3.8-22.3 2.6-45 6.6-67.2 4.6-25 14.4-47.8 22.3-71.7 14.3-43.6 19.7-89.2 44.9-128.6 0.4-0.5 0.4-1.1 0.3-1.5 18.3-11.5 41.3-6.9 63.3-5.3 24 1.7 48 3.7 71.8 6.8 39.8 5.2 90.8 11.7 120.2 42.6 1.3 1.3 3.5 0.6 3.4-1.4-3.5-52-87.8-55.2-126.3-59.5z"/>
			</g>
			<g id="&lt;Group&gt;">
				<path id="&lt;Path&gt;" class="s4" d="m1134.6 175.6c-41.5 9.8-76.5 22-112.6 45.6-35.1 23-67.2 51.1-93.8 83.5-54.2 65.8-90.4 151.1-81.4 237.2 0.3 2.9 4.6 2.9 5 0.1 11.2-82.4 36.8-161.4 90.6-226.1 50.2-60.4 121.5-106.1 192.8-138.1 1.1-0.5 0.8-2.5-0.6-2.2z"/>
			</g>
			<g id="&lt;Group&gt;">
				<path id="&lt;Path&gt;" class="s4" d="m1665.1 436.3c-0.2-0.8-1.6-0.5-1.4 0.4 9.6 40.7 14.4 84 7.8 125.5-0.5 3.3 4.8 3.9 5 0.7 2.8-43.6 1.3-84.4-11.4-126.6z"/>
			</g>
			<g id="&lt;Group&gt;">
				<path id="&lt;Path&gt;" class="s4" d="m1672.8 584.6c0-1.1-1.7-1.3-2.1-0.3-1 2.2-1.7 4.3-2.3 6.5-0.7 2.8 4.3 3.6 4.5 0.6 0.2-2.3 0.1-4.5-0.1-6.8z"/>
			</g>
			<g id="&lt;Group&gt;">
				<path id="&lt;Path&gt;" class="s4" d="m1681.8 649.2c-1.3-2.2-4.9-0.5-4.6 1.8 3.9 26.7 4.8 57.5-13.1 78.8-1.6 2 1.6 4.6 3.2 2.5 9.4-12 18.4-28.1 22.4-42.8 3.8-14.4-0.7-27.8-7.9-40.3z"/>
			</g>
			<g id="&lt;Group&gt;">
				<path id="&lt;Path&gt;" class="s4" d="m852.8 554.5c-44.3 21.3-31.2 78.7-19.6 116 0.9 2.9 5.4 1.1 4.5-1.8-11.9-39.4-19.1-81.4 17.2-110.5 1.8-1.4 0.2-4.8-2.1-3.7z"/>
			</g>
			<g id="&lt;Group&gt;">
				<path id="&lt;Compound Path&gt;" class="s20" d="m931.5 1126.5c13.2-11.4 25.7-25 18.4-42.1-4.2-9.7-12.3-14-14.7-25.6-0.6-3-0.6-6.2-0.5-9.4 1.2-8.3 0.5-16.7-2.3-24.6-1-2.9-2.4-5.7-4-8.4-1.1-9.9-3.8-19.3-10-28-10.5-14.4-28.2-21.3-45.3-14.6-21.8 8.6-23.8 27.5-29.9 46.8-1.8 5.6-1.3 7.5-1.1 7.9-0.4-0.4-2.4-1.3-9.3 0.5-5.2 1.3-10.3 1.8-15.5 3.4-7.9 2.5-14.5 5.7-20.3 10.5-2.1 0.3-4.1 1.4-5.2 3.4-0.6 1.1-1.1 2.3-1.7 3.4-0.3 0.3-0.5 0.6-0.8 0.9-0.7 0.9-1 1.9-1.1 2.9-9 20.3-12.4 43.3-16.3 64.9-4.7 25.1-2.6 61-18 81.9-7.9 10.7-24.9 19-28 32.9-2.9 12.9 9 24 17.2 32.6 21.9 22.8 61.3 48.7 94.8 46.9 33.9-1.8 36.9-46.1 41.5-75.7 12.2 2.1 25.6-0.9 35.9-7.5 16.8-10.6 15.6-23 15.2-39.9 2.4-2.1 6.2-4.1 8.2-6.4 5.1-5.7 8.1-12.8 8.7-20.5 1.2-14.7-6-26.7-15.9-36.2z"/>
			</g>
			<g id="&lt;Group&gt;">
				<path id="&lt;Compound Path&gt;" class="s20" d="m1621.7 1667.1c-0.7-46.9-11.8-78.8-50.6-106.9-6.8-5-21.6-14.7-25.2-7.1q-3.9 10.4-12.3 17.7-5.6 6.4-11.9-0.7c-9-1.8-15.9-6.9-25.6-7-15.9-0.3-27 9.9-37.9 20-0.1-0.1-0.2-0.2-0.4-0.4-2-1.7-5.7-1.8-7.8-0.1-12.7 10.6-13.4 23.2-9.4 36.8-13.3 9.6-9.9 29.9-3.3 46.7-15.6 12.8-6.3 39 12.8 51.1 31.5 20 81.8 25.9 111.6 0.7 14-11.9 30.4-6.4 46.3-15.1 13.7-7.5 13.9-21.5 13.7-35.7z"/>
			</g>
			<g id="&lt;Group&gt;">
				<path id="&lt;Path&gt;" class="s21" d="m952.5 1087.3c-0.7-17.1-11.4-32.1-23.8-43.7 9.2-20.7 4.1-44.3-15.5-59.3-0.7-0.6-1.9-0.2-2 0.8-1.9 18.6 5.8 37.6-8.3 53.7-3.4 3.9-3.5 11.1-0.2 15.1 5.6 6.9 17.5 20.3 15.9 29.6-1.7 9.6-15.6 15.4-24.2 20.7-9.3 5.8-8.2 20.1-0.3 26.3 8.7 6.8 12.9 26.2 0.8 30.6-9.1 3.3-14 16.9-7 24.6 22.4 24.7-36.8 21.1-47.1 17.2-10-3.7-22.7 4.1-20.7 15.7 4 21.9-3.3 41.4-21.3 54.7-7.8 5.8-7.2 20.3 2.9 23.5 16.8 5.4 34.5 18.9 51.8 6.1 17.4-12.9 17.9-43.6 16.9-62.7q-0.1-0.1-0.1-0.3c14.9 0.4 29.6-3 42.2-12.3 17.1-12.7 18.7-29 11.8-44.6 9.6-6.7 16.7-16.7 18.3-28.8 1.8-13.5-3.5-24.5-11.5-33.9 11.8-8 22-18.1 21.4-33z"/>
			</g>
			<g id="&lt;Group&gt;">
				<path id="&lt;Path&gt;" class="s21" d="m1470.3 1686c-10.5-2.8-19.5-11.4-28.8-16.8-2.4-1.5-5.3 0.4-4.5 3.3 4.6 15.2 14.7 27.8 31 30.5 4.6 0.8 9-2.9 9.7-7.4 0.7-5-2.9-8.4-7.4-9.6z"/>
			</g>
			<g id="&lt;Group&gt;">
				<path id="&lt;Path&gt;" class="s21" d="m1485.1 1657.5c-6.1-8.2-15.8-12.8-23.2-19.7-5.6-5.3-11.6-16.2-19.6-17.7-1.1-0.2-2.1 0.6-2.6 1.5-4.4 8.5 5.2 21.4 10.4 27.7 7.1 8.7 16.9 18.5 28.6 19 5.7 0.3 10.2-5.8 6.4-10.8z"/>
			</g>
			<g id="&lt;Group&gt;">
				<path id="&lt;Path&gt;" class="s21" d="m1508.6 1595c-6.5-2.9-13.7-4.1-20.6-5.7-7.5-1.6-14.6-5.1-21.6-8.2-2.6-1.2-4.8 2-3.3 4.2 9.1 13.8 28.8 25.2 45.5 19.3 4.4-1.5 4-7.8 0-9.6z"/>
			</g>
			<g id="&lt;Group&gt;">
				<path id="&lt;Path&gt;" class="s21" d="m1622.8 1652c-0.8-6.3-8.5-12.3-14.9-8.9-7.5 4.1-15.7 6.2-24 6.4-0.3 0-0.6-0.1-1 0-3.5 0-7.1-0.4-10.6-1.1-3.1-0.7-6 3.8-3.7 6.2 1.3 1.3 2.6 2.5 4 3.6-0.1 0.5-0.3 1-0.3 1.6 0 8.6-0.3 17.1-0.4 25.7-0.3 10.9 10.6 18.6 20.3 12-1.2 0.9 3.9 0 5.3-0.1 2.1-0.1 4.1-0.3 6.1-0.7 5.6-1.2 10.5-3.8 14-8.4 7.3-9.6 6.7-25 5.2-36.3z"/>
			</g>
			<g id="&lt;Group&gt;">
				<path id="&lt;Path&gt;" class="s21" d="m1582.4 1601.1c-1-4-6.2-4.1-7.2 0-0.9 3.6-1.2 7-1.4 10.7-0.2 3 1.8 5.7 5 5.7 3.1 0 5.2-2.6 5-5.6-0.2-3.7-0.5-7.1-1.4-10.8z"/>
			</g>
			<g id="&lt;Group&gt;">
				<path id="&lt;Path&gt;" class="s21" d="m1592.4 1607.9c-0.4-1.6-1-3.2-1.5-4.8-0.3-1.1-2.2-1.2-2.5 0-0.5 1.6-1 3.1-1.5 4.7-0.4 1.7-0.5 3.5-0.6 5.2-0.5 4.9 7.2 5 6.7 0.1-0.1-1.8-0.2-3.5-0.6-5.2z"/>
			</g>
			<g id="&lt;Group&gt;">
				<path id="&lt;Path&gt;" class="s21" d="m1513.8 1617.9c-1.1-1.1-3.6-1.5-4.2 0.5-1.1 4.1-0.3 8.3 0.7 12.4 0.6 2.3 2.3 4.1 4.8 3.7 2.1-0.2 4.4-2.5 3.8-4.7-1-4.1-2.1-8.8-5.1-11.9z"/>
			</g>
			<g id="&lt;Group&gt;">
				<path id="&lt;Path&gt;" class="s21" d="m1529 1619.8c-0.6-1.2-2.5-1.4-3.1 0-0.6 1.5-1.6 2.8-2.2 4.3-0.6 1.6-1 3.2-1.7 4.8-2 4.2 4.7 7 6.8 2.8 0.8-1.9 1.7-4 1.8-6.1 0.2-1.9-0.8-4.1-1.6-5.8z"/>
			</g>
			<g id="&lt;Group&gt;">
				<path id="&lt;Path&gt;" class="s21" d="m1524.5 1688.6c-1.6-1.6-3.7-1.6-5.6-0.5-2.6 1.5-5.3 2.7-7.6 4.6-2.2 1.9-4.2 3.8-6.6 5.5-1 0.7-0.6 2.6 0.7 2.7 3.3 0.3 7 0.5 10.2-0.4 3.8-1.1 6.5-3.5 9.3-6.3 1.5-1.5 1-4.2-0.4-5.6z"/>
			</g>
			<g id="&lt;Group&gt;">
				<path id="&lt;Path&gt;" class="s21" d="m1519.1 1670.9c-1.5 0.9-3.1 1.4-4.6 2.4-1.4 0.9-2.9 1.5-4.5 2-1.7 0.4-1.1 2.9 0.4 3.1 2.1 0.3 4.3 0.2 6.4-0.2 2.3-0.6 4-2.4 5.4-4.1 1.8-2-1.1-4.5-3.1-3.2z"/>
			</g>
			<g id="&lt;Group&gt;">
				<path id="&lt;Path&gt;" class="s21" d="m843.1 1106.1c0-0.6-0.7-3.6-0.3-2.2 0.3 1.3-0.1-0.4-0.1-0.5-0.4-1.4-1.2-2.3-2.5-3-6.6-3.4-12.1 3.9-14.6 9.1-2.1 4.3 0.9 9.4 5.2 10.5 4.4 1.2 9.2-1.7 9.8-6.4q0.1-0.7 0.2-1.4c0-0.1 0-0.1 0.1-0.1q0.3-0.7 0.5-1.4c0.1-0.1 0.1-0.1 0.1-0.1 0-0.1 0.1-0.2 0.1-0.3 0.9-1.4 1.5-2.5 1.5-4.2z"/>
			</g>
			<g id="&lt;Group&gt;">
				<path id="&lt;Path&gt;" class="s21" d="m853.3 1113c-1.5-1.2-3.1-1.8-5.2-1.2-1.4 0.3-2.7 1.1-3.9 2-2.3 1.7-3.8 3.8-5.1 6.3-1.6 2.9 0.4 7 3.3 8.1 3 1.1 6.9-0.1 8.1-3.3q0.2-0.6 0.4-1.1c0.1-0.2 0.5-0.6 0.3-0.4 0.1-0.1 0.2-0.2 0.2-0.3 0 0 0.2-0.2 0.4-0.4 0.1-0.1 0.2-0.2 0.2-0.2 0.3-0.2 0.6-0.4 0.9-0.7 1.3-1 2-2.3 2.3-3.8 1.1-1.7 0.2-4.4-1.9-5z"/>
			</g>
			<g id="&lt;Group&gt;">
				<path id="&lt;Path&gt;" class="s21" d="m797.4 1167c-0.9-2.6-2.4-5-4-7.3-1.5-2.1-3.4-4.7-5.8-5.5-2.1-0.7-4.5-0.3-5.8 1.6-3.8 4.9-1.2 14.2 2.4 18.5 5.6 6.8 15.7 1 13.2-7.3z"/>
			</g>
			<g id="&lt;Group&gt;">
				<path id="&lt;Path&gt;" class="s21" d="m801.8 1149.6c-0.2-0.8-0.4-1.6-1-2.3-0.4-0.6-1.1-1.1-1.6-1.7q-1.3-1.2-2.5-2.4c-1.5-1.7-4.3 0.3-4 2.3q0.2 1.7 0.5 3.5c0.1 0.8 0.2 1.6 0.5 2.3 0.3 0.8 0.8 1.5 1.3 2.1 1.2 1.6 3.3 2 5 1.1 1.9-1 2.3-3 1.8-4.9z"/>
			</g>
			<g id="&lt;Group&gt;">
				<g id="&lt;Group&gt;">
					<path id="&lt;Path&gt;" class="s21" d="m898.7 997.4c-1.3-1.2-3.4-1.6-4.8-0.4-0.2 0.2-0.4 0.3-0.5 0.5q1.9-3.6 3.8-7.2c1.6-3.1-2.7-5.9-5.2-4-2.7 1.9-5.4 3.8-8 5.9-3 2.4-4.8 5.3-6.6 8.7-2.6 4.5 4.1 9.1 7.9 6.1 1.6-1.3 3.1-2.6 4.4-4-0.4 1.6-0.2 3.2 0.4 4.9 0.9 2.5 4.7 2.5 5.6 0.1q0.2-0.4 0.4-0.8c0 0 0.1-0.1 0.1-0.2 0.4-0.8 0.9-1.9 1-2.3q0.2-0.4 0.4-0.8c0-0.1 0-0.1 0-0.1 0.1-0.1 0.1-0.1 0.1-0.1 0.3-0.6 0.8-1 1.2-1.5 1.3-1.3 0.9-3.6-0.2-4.8z"/>
				</g>
				<g id="&lt;Group&gt;">
					<path id="&lt;Path&gt;" class="s21" d="m896.2 1007q0 0 0 0c0.1-0.2 0.1-0.1 0 0z"/>
				</g>
			</g>
			<g id="&lt;Group&gt;">
				<path id="&lt;Path&gt;" class="s21" d="m864.8 1182c-0.6-2.4-1.3-4.5-2.9-6.4-0.8-1-1.7-1.9-2.9-2.4q-0.5-0.1-0.9-0.2c-0.2-0.4-1.1-0.7-1.5-0.9-1.2-0.7-2.8-0.1-3.6 0.9-0.9 1.1-0.7 2.5 0 3.7q0 0.1 0.1 0.2-0.1 0.6 0 1.2 0.1 0.9 0.4 1.6 0.2 0.8 0.1 0.4c0.3 1 0.5 1.9 0.7 3.2 0.4 2.8 3 5.1 5.9 4.6 2.6-0.4 5.3-3 4.6-5.9z"/>
			</g>
			<g id="&lt;Group&gt;">
				<path id="&lt;Path&gt;" class="s21" d="m763.4 1255.2q-0.3-0.2-0.5-0.5-0.1-0.1-0.2-0.2c-0.6-0.7-1.3-1.3-1.9-1.9-0.1-0.1-0.1-0.1-0.1-0.1 0 0 0 0-0.1-0.1q-0.3-0.3-0.6-0.6-0.6-0.8-1.1-1.6c-1.2-2-4.9-1.1-5 1.3 0 1.6 0.1 3.2 0.4 4.8 0.5 1.9 1.4 3.6 2.7 5.2 1.7 2.1 4.8 2.5 6.8 0.5 2-2 1.7-5-0.4-6.8z"/>
			</g>
			<g id="&lt;Group&gt;">
				<path id="&lt;Path&gt;" class="s21" d="m770.7 1247.3q-0.4-0.6-0.8-1.1c-0.5-0.7-1.2-1-2-1.2q-0.7-0.1-1.4 0.2-0.6 0.2-1 0.6-0.4 0.4-0.6 1-0.3 0.5-0.2 1.1-0.1 0.5 0.1 1.1 0.3 0.7 1 1.2 0.5 0.4 1.1 0.8c0.6 0.4 1.3 0.6 2 0.5q0.3-0.1 0.6-0.1 0.5-0.2 0.9-0.6 0.3-0.3 0.4-0.6 0.3-0.4 0.4-1 0.1-1-0.5-1.9z"/>
			</g>
			<g id="&lt;Group&gt;">
				<path id="&lt;Path&gt;" class="s4" d="m718.4 1506.3c-1.6-2.9-5.5-3-8-1.3-1.6 1.2-2.5 3.2-2.2 5.1 0 0.2 0.1 0.4 0.2 0.5-0.1 0.4-0.1 0.8 0 1.2 0.2 1.3 0.8 2.6 1.9 3.4 1.1 0.8 2.5 1.2 3.9 1.1q1.3-0.2 2.4-1 1.2-0.9 1.7-2.2c0.5-0.8 0.8-1.8 0.8-2.8 0.1-1.4 0-2.8-0.7-4z"/>
			</g>
			<g id="&lt;Group&gt;">
				<path id="&lt;Path&gt;" class="s4" d="m692.6 1496.5q-0.4-0.7-0.8-1.5c-0.2-0.3-0.7-0.5-1.1-0.4-0.4 0-0.7 0.3-0.9 0.7q-0.4 0.8-0.9 1.6c-0.4 0.7-0.1 1.6 0.3 2.2 0.4 0.6 1.2 0.9 1.9 0.8 0.8-0.1 1.5-0.6 1.8-1.3 0.3-0.8 0.1-1.4-0.3-2.1z"/>
			</g>
			<g id="&lt;Group&gt;">
				<path id="&lt;Path&gt;" class="s4" d="m1696.6 1591.2c0.1-0.6 0-1.2-0.1-1.7q0-0.2 0-0.4c0.4-1.3-0.2-2.8-1-3.9-1-1.4-2.7-2.2-4.3-2.2-3.3 0-5.8 2.8-5.5 6.1 0.2 1.5 0.8 3 1.7 4.2 1.5 2 4 2.7 6.4 1.8 1-0.4 1.8-1.3 2.3-2.4q0 0.1 0 0.1c0.1-0.2 0.1-0.4 0.2-0.6q0-0.1 0.1-0.2c0-0.3 0.2-0.5 0.2-0.8z"/>
			</g>
			<g id="&lt;Group&gt;">
				<path id="&lt;Path&gt;" class="s4" d="m1702.6 1568.2q-0.3-0.3-0.6-0.6c-0.4-0.4-0.8-0.8-1.3-0.9-0.5-0.1-1.1-0.2-1.5 0.1q-0.6 0.2-1.1 0.7c-0.3 0.4-0.6 1.2-0.4 1.8l0.1 0.8c0.2 1 0.7 1.8 1.7 2.2 0.6 0.2 1.3 0.2 2 0 0.6-0.3 1.2-0.8 1.4-1.5 0.4-0.7 0.3-1.9-0.3-2.6z"/>
			</g>
			<g id="&lt;Group&gt;">
				<g id="&lt;Group&gt;">
					<path id="&lt;Path&gt;" class="s22" d="m1464.1 1324.7c-1.1 33-2.5 66.3-0.2 99.3 0.6 7.6 12.5 7.7 11.9 0-2.3-33-0.9-66.3 0.3-99.3 0.3-7.7-11.7-7.7-12 0z"/>
				</g>
				<g id="&lt;Group&gt;">
					<path id="&lt;Path&gt;" class="s22" d="m1474 1175.4c-0.7 20.4-4.7 40.5-5.8 60.9-0.4 7.6 11.5 7.6 11.9 0 1.2-20.4 5.1-40.5 5.8-60.9 0.2-7.7-11.7-7.7-11.9 0z"/>
				</g>
				<g id="&lt;Group&gt;">
					<path id="&lt;Path&gt;" class="s22" d="m1413.5 1316.9c-2.5 21.8-5.1 43.6-7.3 65.5-0.8 7.6 11.1 7.5 11.9 0 2.3-21.9 4.8-43.7 7.3-65.5 0.9-7.7-11-7.6-11.9 0z"/>
				</g>
				<g id="&lt;Group&gt;">
					<path id="&lt;Path&gt;" class="s22" d="m1422.5 1159.2c-0.8 24.6 2.3 49 0.2 73.6-0.6 7.7 11.3 7.6 12 0 2-24.6-1.1-49-0.3-73.6 0.2-7.7-11.7-7.7-11.9 0z"/>
				</g>
				<g id="&lt;Group&gt;">
					<path id="&lt;Path&gt;" class="s22" d="m1058.9 1316.7c3.8 43.5 8.2 92.5-8.4 134-2.8 7.1 8.7 10.2 11.5 3.2 17-42.6 12.8-92.6 8.8-137.2-0.6-7.6-12.5-7.7-11.9 0z"/>
				</g>
				<g id="&lt;Group&gt;">
					<path id="&lt;Path&gt;" class="s22" d="m1032.4 1163.4c6.1 23.7 10.9 47.7 15.3 71.8 1.3 7.5 12.8 4.3 11.5-3.2-4.4-24.1-9.2-48.1-15.3-71.8-2-7.4-13.5-4.2-11.5 3.2z"/>
				</g>
				<g id="&lt;Group&gt;">
					<path id="&lt;Path&gt;" class="s22" d="m1119.3 1301.2c3.5 23 6.8 46 9.8 69.1 1.1 7.5 13 7.6 12 0-3.2-24.1-6.6-48.2-10.3-72.2-1.2-7.6-12.7-4.4-11.5 3.1z"/>
				</g>
				<g id="&lt;Group&gt;">
					<path id="&lt;Path&gt;" class="s22" d="m1087.6 1152.5c7.5 24.1 13.3 48.6 18.4 73.3 1.5 7.5 13 4.3 11.5-3.2-5.1-24.7-10.9-49.2-18.4-73.2-2.2-7.3-13.7-4.2-11.5 3.1z"/>
				</g>
				<g id="&lt;Group&gt;">
					<path id="&lt;Path&gt;" class="s22" d="m858.2 616.4c50.7-55.6 109.5-100.7 181-126 80-28.5 169.8-39.4 254.4-33.9 80.8 5.3 165.1 30 231.7 77.5 31 22.1 56.9 50.4 74.7 84.1 19.9 37.8 43.4 80.4 41.6 124.1-0.3 7.7 11.7 7.7 12 0 1.6-41.6-18.5-79.4-36.3-115.8-17.7-36.3-40.7-67.1-72.5-92.5-62-49.6-144-77.3-222.1-86.6-91.8-11-191.4-0.4-279.2 29-76.6 25.6-139.7 72.4-193.7 131.6-5.2 5.7 3.2 14.2 8.4 8.5z"/>
				</g>
				<g id="&lt;Group&gt;">
					<path id="&lt;Path&gt;" class="s22" d="m849.3 675.2c-15.8-34.7-32-82.2-4.8-115 18.6-22.2 45.7-37.4 71.4-49.9 63.9-31.4 134.9-50.4 204.8-63.3 159.9-29.6 347.3 2.3 472.4 111.4 30.1 26.2 71.2 57.1 90.4 92.4 17.1 31.4-14.8 85.2-37.4 108.3-5.3 5.5 3.1 13.9 8.5 8.4 21.6-22.1 42.8-61.5 46.2-92.6 3.6-33.1-30.5-61.1-52.1-81.1-33.3-30.7-65.3-61.7-104-85.7-44.9-27.7-94.6-47.8-145.5-61.3-160.7-42.7-340.3-19.9-489.4 53.2-30 14.7-63.8 33.8-82.1 63.1-21.8 34.9-4.1 84.4 11.3 118.2 3.2 6.9 13.5 0.9 10.3-6.1z"/>
				</g>
				<g id="&lt;Group&gt;">
					<path id="&lt;Path&gt;" class="s22" d="m846.1 549.6c-2.3-104.4 39-202.2 115.1-273.8 35.7-33.6 77.6-60.6 122.6-80.2 24.2-10.5 49.7-19.5 75.6-25.2 6.9-1.5 18.2-0.1 23.7-3.3 3.8-2.2 4.6-5.6 7.3-7.8 17.6-14.4 47.7-13 69.3-13.1 35.3-0.2 70.9 3.3 105.5 10.3 26.4 5.4 63.6 12.1 83 32.8 6.1 6.5 5.9 15.2 11.8 21.4 5.4 5.6 20.3 8.9 27.3 12.9 13.9 7.7 27.2 16.6 40.2 25.8 53 37.6 100.2 86.6 128.6 145.7 34 70.7 40.2 156.5 20.7 232-1.9 7.4 9.6 10.6 11.5 3.1 33.1-128-8.1-260-103.8-349.6-21.2-19.9-44.5-37.9-68.9-53.7-12-7.8-24.5-16.1-37.5-22.1-10.4-4.9-7.8-3.9-13-11.9-14-21.6-36.4-31.1-60.5-38.7-36-11.3-74.3-16.6-112-19-30.1-1.8-65.6-4.1-94.7 6.3-7.8 2.8-11.3 8.2-17.8 11.8-13.6 7.7-41.9 9.9-59.6 15.7-49.4 16.1-96 40.4-137.1 72.2-96 74.4-151.9 186.5-149.2 308.4 0.2 7.6 12.1 7.7 11.9 0z"/>
				</g>
				<g id="&lt;Group&gt;">
					<path id="&lt;Path&gt;" class="s22" d="m896.8 671.2c2.6 16.3 5 31.2 9.7 47.1 2.1 7.3 13.6 4.2 11.5-3.2-4.7-15.9-7-30.7-9.7-47.1-1.2-7.5-12.7-4.3-11.5 3.2z"/>
				</g>
				<g id="&lt;Group&gt;">
					<path id="&lt;Path&gt;" class="s22" d="m1584.2 709c-3.1 28.6-9.5 56.6-14.3 84.9-1.3 7.5 10.2 10.8 11.5 3.2 5-29.4 11.5-58.4 14.7-88.1 0.8-7.6-11.1-7.5-11.9 0z"/>
				</g>
				<g id="&lt;Group&gt;">
					<path id="&lt;Path&gt;" class="s22" d="m1173.3 164.2c-34.7 85.7-57.6 174.9-67.4 266.8-0.8 7.6 11.1 7.5 11.9 0 9.7-90.8 32.7-179 67-263.6 2.9-7.1-8.7-10.2-11.5-3.2z"/>
				</g>
				<g id="&lt;Group&gt;">
					<path id="&lt;Path&gt;" class="s22" d="m1142.1 164.4c-38.7 86.8-66.1 181.9-71.9 277-0.5 7.7 11.4 7.7 11.9 0 5.7-92.8 32.6-186.4 70.3-271 3.1-7-7.1-13-10.3-6z"/>
				</g>
				<g id="&lt;Group&gt;">
					<path id="&lt;Path&gt;" class="s22" d="m1461.8 214.2c25.6 84.7 22 170.9 13.3 258-0.7 7.6 11.2 7.5 12 0 8.7-88.1 12.1-175.5-13.8-261.2-2.2-7.3-13.7-4.2-11.5 3.2z"/>
				</g>
				<g id="&lt;Group&gt;">
					<path id="&lt;Path&gt;" class="s22" d="m1495.2 226.3c31.2 86.5 30.5 185.5 21.8 276-0.8 7.6 11.2 7.6 11.9 0 8.8-91.4 9.3-191.7-22.2-279.2-2.6-7.1-14.1-4-11.5 3.2z"/>
				</g>
				<g id="&lt;Group&gt;">
					<path id="&lt;Path&gt;" class="s22" d="m916 780.4c3.1 50.4 5.3 101.2 25.2 148.3 25.9 61.3 77.8 104.1 137.2 131.5 116.9 54 261 57.3 372.2-13.9 69.1-44.3 110.6-114.8 124.4-194.9 1.3-7.5-10.2-10.7-11.5-3.1-12.3 70.9-46.1 135.1-104.9 178.1-49.4 36.1-109.9 55.2-170.4 60.6-120.7 10.8-274.3-36.5-331.1-152-23.7-48.3-25.9-101.9-29.2-154.6-0.5-7.6-12.4-7.7-11.9 0z"/>
				</g>
				<g id="&lt;Group&gt;">
					<g id="&lt;Group&gt;">
						<path id="&lt;Path&gt;" class="s22" d="m876 1230.5c-28.2-3-61.8-5.5-86.4-21.1-36.5-23.2-18-82.5-9.7-116.7 5.5-22.9 10.2-46 36.4-54.5 13.9-4.4 38.9 2 52.2 4.5 19.4 3.6 41.5 8.3 57.5 20.1 23.8 17.6 29.2 53.6-7 59-5.6 0.9-5.2 8.4-1.5 10.9q7.7 4.8 14.5 10.8 22.3 13-8.2 38.7c-5.1 0.3-7.9 6.4-4.2 10.2 15.1 15.9-6.8 32.6-21.6 36.4-7.2 1.8-14.8 1.6-22 1.7-7.7 0.1-7.7 12 0 11.9 18.4-0.3 41-1 53.5-16.9 10.3-13.3 9.8-29.7-1.5-41.5q-2.1 5.1-4.2 10.2c16.4-0.8 32.9-10.6 34.2-28.7 1.5-20.4-20.1-33.2-34.4-43.1q-0.8 5.5-1.5 10.9c44.9-6.6 44.7-56.1 12-79.9-22.4-16.3-53.8-21.6-80.6-25-19.2-2.4-46.8-7.3-63.1 6.6-18.8 16-21.9 51.8-26.4 74.1-5.2 26-14 60.1-3.1 85.6 17.2 40.6 77.9 43.8 115.1 47.7 7.6 0.8 7.5-11.1 0-11.9z"/>
					</g>
				</g>
				<g id="&lt;Group&gt;">
					<path id="&lt;Path&gt;" class="s22" d="m858.9 602.2c5.7 17.2 13.9 33.5 19.7 50.7 1.3 4.1 6.7 6.1 9.9 2.6 43.2-45.9 93-85.5 143.3-123.5 48-36.2 101.1-63.7 161-73.2 7.6-1.2 4.4-12.7-3.1-11.5-60.9 9.7-115.1 37.6-163.9 74.4-51.1 38.6-101.8 78.7-145.7 125.4q5 1.3 10 2.6c-5.8-17.2-14-33.4-19.7-50.7-2.4-7.2-13.9-4.1-11.5 3.2z"/>
				</g>
				<g id="&lt;Group&gt;">
					<path id="&lt;Path&gt;" class="s22" d="m1419.4 481.5c86.1 56.5 157.6 151.1 169.3 255.8 0.5 4.5 6.5 8.7 10.2 4.2 17-20.7 26.5-43.8 36.7-68.3 2.9-7.1-8.6-10.2-11.5-3.2-9.5 22.8-17.9 43.9-33.7 63.1q5.1 2.1 10.2 4.2c-12.2-109.3-85.2-207-175.2-266.1-6.4-4.2-12.4 6.1-6 10.3z"/>
				</g>
				<g id="&lt;Group&gt;">
					<path id="&lt;Path&gt;" class="s22" d="m1195.1 878c28.6 3.7 57.2 4.3 85.9 0.6 10.1-1.3 26.3-7.8 33.8-1.6 11.7 9.8 6.1 35.3 0.3 46.9-34.2 67.1-152.4 28.9-123.8-47.8 2.7-7.2-8.8-10.3-11.5-3.2-28.5 76.3 73.1 129 129.4 78 18.8-17 38.5-64.8 14.4-86.1-8.4-7.4-20.2-1.9-30-0.2-32.7 5.9-65.7 5.7-98.5 1.5-7.6-1-7.6 10.9 0 11.9z"/>
				</g>
				<g id="&lt;Group&gt;">
					<path id="&lt;Path&gt;" class="s22" d="m1248.3 755.2c-3.5 12.8-6.7 25.6-10.1 38.3-2.6 10.1-8.7 23.2-8.1 33.8 1.2 19.6 26.2 25.1 41.9 24.1 7.7-0.4 7.7-12.4 0-11.9-7.5 0.5-18.5 0.4-24.6-5-8.9-7.9-2.6-19.4-0.2-28.3 4.3-15.9 8.3-31.9 12.6-47.8 2-7.4-9.5-10.6-11.5-3.2z"/>
				</g>
				<g id="&lt;Group&gt;">
					<path id="&lt;Path&gt;" class="s22" d="m1158.7 1086.2c0.4 6.9 1.3 14.1-1.6 20.7-6 13.5-23.1 18.4-36.1 21.6-7.5 1.8-4.3 13.3 3.2 11.5 15.9-4 34.2-10.5 42.6-25.9 4.7-8.8 4.3-18.2 3.9-27.9-0.4-7.7-12.3-7.7-12 0z"/>
				</g>
				<g id="&lt;Group&gt;">
					<path id="&lt;Path&gt;" class="s22" d="m1327.3 1086.3c-5 26.2 10.7 57 39.1 58.8 7.7 0.4 7.7-11.5 0-12-20.1-1.2-31.1-25.4-27.6-43.6 1.4-7.5-10.1-10.7-11.5-3.2z"/>
				</g>
				<g id="&lt;Group&gt;">
					<path id="&lt;Path&gt;" class="s22" d="m950.3 1180.9c60.3-14.5 121.3-26.5 180.7-44.8 7.3-2.3 4.1-13.8-3.2-11.5-59.4 18.3-120.4 30.3-180.7 44.8-7.5 1.8-4.3 13.3 3.2 11.5z"/>
				</g>
				<g id="&lt;Group&gt;">
					<path id="&lt;Path&gt;" class="s22" d="m1364.9 1144.9c60.2 16.8 119.5 37.2 178.7 57.4 7.3 2.4 10.4-9.1 3.2-11.5-59.2-20.2-118.5-40.6-178.8-57.4-7.4-2.1-10.5 9.4-3.1 11.5z"/>
				</g>
				<g id="&lt;Group&gt;">
					<path id="&lt;Path&gt;" class="s22" d="m757.9 1182.1c-49.1 71.6-118.7 130.3-139.3 218.8-9.7 41.8-1 83.3 34.5 110 46.6 35.1 102 32.5 151.2 4.6 48.6-27.5 82.5-69.5 119.4-109.9 5.1-5.7-3.3-14.1-8.5-8.4-60 65.8-146.3 170.9-245.1 110.8-93.3-56.8-14.5-176.1 31.5-237.4 21.1-28.2 46.7-53.5 66.6-82.5 4.3-6.3-6-12.3-10.3-6z"/>
				</g>
				<g id="&lt;Group&gt;">
					<path id="&lt;Path&gt;" class="s22" d="m870.2 1234.8c-16.9 90.8-28.9 193.2-80.7 272.1-4.2 6.4 6.1 12.4 10.3 6 52.4-79.9 64.8-183 81.9-274.9 1.4-7.5-10.1-10.7-11.5-3.2z"/>
				</g>
				<g id="&lt;Group&gt;">
					<path id="&lt;Path&gt;" class="s22" d="m907.4 1280.4c15.7 22 26.4 45.9 32.1 72.3 1.6 7.5 13.1 4.3 11.5-3.1-5.9-27.3-17.1-52.5-33.3-75.2-4.4-6.2-14.7-0.2-10.3 6z"/>
				</g>
				<g id="&lt;Group&gt;">
					<path id="&lt;Path&gt;" class="s22" d="m915.5 1385.1c17.9 96 11.2 194.4 16.8 291.4 0.4 7.6 12.3 7.7 11.9 0-5.6-98.1 0.9-197.5-17.2-294.5-1.4-7.6-12.9-4.4-11.5 3.1z"/>
				</g>
				<g id="&lt;Group&gt;">
					<path id="&lt;Path&gt;" class="s22" d="m1051.1 1449.3c-37.4 81.8-82.5 159.7-125.9 238.4-3.7 6.8 6.6 12.8 10.3 6.1 43.4-78.8 88.5-156.7 125.9-238.5 3.2-6.9-7.1-13-10.3-6z"/>
				</g>
				<g id="&lt;Group&gt;">
					<path id="&lt;Path&gt;" class="s22" d="m1135.1 1376.2c92.4 3.3 184.9 4.8 277.1 12.1 7.6 0.6 7.6-11.3 0-11.9-92.2-7.3-184.7-8.9-277.1-12.1-7.7-0.2-7.7 11.7 0 11.9z"/>
				</g>
				<g id="&lt;Group&gt;">
					<path id="&lt;Path&gt;" class="s22" d="m1116.6 1134.2c7.2 71.4 57.5 114.1 127 122.3 68.3 8 132.5-39 137.8-108.6 0.6-7.6-11.3-7.6-11.9 0-4.9 64.2-65.7 104.5-127.4 96.4-61.8-8.1-107.1-46.1-113.6-110.1-0.7-7.6-12.7-7.6-11.9 0z"/>
				</g>
				<g id="&lt;Group&gt;">
					<path id="&lt;Path&gt;" class="s22" d="m1540.1 1199.5c42.5 62.4 71.7 133 104.7 200.5 3.4 6.9 13.7 0.9 10.3-6-33-67.5-62.2-138.2-104.7-200.5-4.3-6.3-14.7-0.3-10.3 6z"/>
				</g>
				<g id="&lt;Group&gt;">
					<path id="&lt;Path&gt;" class="s22" d="m1485.7 1483.4c31-4.3 61.2-18.2 89.1-31.7 27.8-13.4 57.5-28.3 79.4-50.5 5.4-5.5-3-13.9-8.4-8.4-21.1 21.3-50.3 35.7-77 48.6-27 13-56.3 26.4-86.3 30.5-7.5 1.1-4.3 12.6 3.2 11.5z"/>
				</g>
				<g id="&lt;Group&gt;">
					<path id="&lt;Path&gt;" class="s22" d="m1634.5 1408.3c21.7 40.5 44.5 80.6 64.1 122.1 7.3 15.6 16.3 33.2 13.9 50.9-9.2 67-76.8 104-135.8 118.6-7.4 1.8-4.2 13.3 3.2 11.5 64.5-16 130.2-54.7 143.8-125.1 3.2-16.7-1.8-32.1-8.3-47.5-19.8-47-46.5-91.6-70.6-136.5-3.6-6.8-13.9-0.8-10.3 6z"/>
				</g>
				<g id="&lt;Group&gt;">
					<path id="&lt;Path&gt;" class="s22" d="m1463.6 1427.2c4.7 46.3 14.8 91.7 19.6 138 0.8 7.6 12.7 7.6 11.9 0-4.7-46.3-14.8-91.8-19.6-138-0.8-7.6-12.7-7.6-11.9 0z"/>
				</g>
				<g id="&lt;Group&gt;">
					<path id="&lt;Path&gt;" class="s22" d="m1197.4 1460.6c70.9 1.2 141.9-1.9 212.8-0.7 7.7 0.2 7.7-11.8 0-11.9-70.9-1.2-141.9 1.9-212.8 0.7-7.7-0.1-7.7 11.8 0 11.9z"/>
				</g>
				<g id="&lt;Group&gt;">
					<path id="&lt;Path&gt;" class="s22" d="m1185.3 1459.6c-9.6 23.1-22 78.2 1.5 98.1 9.2 7.9 26.7 3.8 37.1 3.4q41.6-1.8 83.2-3.5 41.7-1.8 83.3-3.6c11-0.4 32.8 3 41.9-4.5 9-7.5 3.5-24 1.8-32.9-4.3-21.8-10.7-43.3-18.1-64.2-2.6-7.2-14.1-4.1-11.5 3.1 6.8 19.1 32.9 74.6 6.7 85.7-12 5.2-33.7 1.5-46.8 2q-26 1.1-52.1 2.2c-31.9 1.4-67 7-98.8 4.2-10.1-0.9-16.4 1.2-22.3-9.3-3.8-6.6-4.5-22.8-4.6-28.4-0.3-17.2 3.6-33.4 10.2-49.1 3-7.1-8.5-10.2-11.5-3.2z"/>
				</g>
				<g id="&lt;Group&gt;">
					<path id="&lt;Path&gt;" class="s22" d="m1199.8 1576.8c4.9 38.7 7.8 78.5 14.8 116.9 3.5 19.3 11.6 23.4 30.7 24.4 58.9 3.3 118.8-1.9 177.6-5.6 7.6-0.5 7.7-12.4 0-11.9-47.1 2.9-94.2 5.7-141.4 6.1-9.8 0.1-19.7 0-29.5-0.3-20.9-0.6-25-9.3-27.6-29.3-4.4-33.4-8.4-66.9-12.6-100.3-1-7.5-12.9-7.6-12 0z"/>
				</g>
				<g id="&lt;Group&gt;">
					<path id="&lt;Path&gt;" class="s22" d="m1415.8 1548.4c7.1 42.1 5.3 86.3 4.1 128.9-0.2 7.6 11.7 7.6 11.9 0 1.2-43.8 2.8-88.8-4.5-132.1-1.2-7.6-12.7-4.4-11.5 3.2z"/>
				</g>
				<g id="&lt;Group&gt;">
					<path id="&lt;Path&gt;" class="s22" d="m866.5 1310.1c29.6 32.1 29.9 78.5 19.6 118.6-1.9 7.4 9.6 10.6 11.5 3.1 11.4-44.4 9.9-94.9-22.7-130.2-5.2-5.6-13.6 2.8-8.4 8.5z"/>
				</g>
				<g id="&lt;Group&gt;">
					<path id="&lt;Path&gt;" class="s22" d="m1593.5 753.2c25.3-18.9 48 8.6 54.3 32.9 5.1 19.6 2.2 40.6-4.5 59.4-17 47.6-58.5 81.7-107 93.2-7.4 1.8-4.3 13.3 3.2 11.5 60.6-14.4 113-64.2 121.6-127.5 5.3-38.2-24.6-116.3-73.7-79.8-6.1 4.5-0.1 14.9 6.1 10.3z"/>
				</g>
				<g id="&lt;Group&gt;">
					<path id="&lt;Path&gt;" class="s22" d="m893.4 665.3c-47.6-23.3-78.7 46.5-78.3 82.1 0.8 71.7 49.2 125 114.5 148.3 7.2 2.6 10.3-8.9 3.1-11.5-51.6-18.4-92.7-56.4-103.1-111.8-4.7-24.6-4.2-52.8 10.1-74.3 8.8-13.4 30.5-30.9 47.7-22.5 6.9 3.3 12.9-6.9 6-10.3z"/>
				</g>
				<g id="&lt;Group&gt;">
					<path id="&lt;Path&gt;" class="s22" d="m852.1 1031.5c1-14.8 4.2-30.6 14.9-41.6 12.4-12.8 31.4-15.3 44.7-2.4 17.8 17.1 18.7 50.1 19.7 73 0.3 7.6 12.2 7.7 11.9 0-1.4-31.3-4.4-82.4-41.7-92.5-39.1-10.5-59.2 32.1-61.4 63.5-0.6 7.6 11.4 7.6 11.9 0z"/>
				</g>
				<g id="&lt;Group&gt;">
					<path id="&lt;Path&gt;" class="s22" d="m1612.6 1515.6c-15.1-6.9-30.3 4.6-41.6 13.8-15.5 12.7-28 28.5-43.2 41.4-5.9 5 2.6 13.4 8.4 8.5 10.6-9.1 19.8-19.9 29.9-29.5 7.5-7.1 28.1-29.6 40.5-23.9 6.9 3.2 13-7.1 6-10.3z"/>
				</g>
				<g id="&lt;Group&gt;">
					<path id="&lt;Path&gt;" class="s22" d="m1475.7 1486.3c17.5 30.3 33.6 61.4 51.1 91.8 3.9 6.6 14.2 0.6 10.3-6.1-17.5-30.3-33.6-61.4-51.1-91.8-3.9-6.6-14.2-0.6-10.3 6.1z"/>
				</g>
				<g id="&lt;Group&gt;">
					<path id="&lt;Compound Path&gt;" fill-rule="evenodd" class="s23" d="m1167.4 767c-3.4 33.7-30.3 58.6-60.2 55.6-29.8-3-51.2-32.8-47.8-66.5 3.4-33.7 30.3-58.5 60.2-55.5 29.8 3 51.2 32.7 47.8 66.4zm-71.1-21.8c1.1-3.4 1.2-7-0.2-10.4-2.2-5.2-7.9-7.8-13.4-6.6-6.1 1.3-10.3 6.7-11.9 12.5-2 7-2.7 15.2 3.9 20.1 10.6 7.9 21.5-4.5 21.6-15.6z"/>
				</g>
				<g id="&lt;Group&gt;">
					<path id="&lt;Compound Path&gt;" fill-rule="evenodd" class="s23" d="m1443.9 782.2c-3.4 33.7-30.3 58.6-60.2 55.6-29.8-3-51.2-32.8-47.8-66.5 3.4-33.7 30.3-58.6 60.1-55.5 29.9 3 51.3 32.7 47.9 66.4zm-8.5-11.5c2.7-7.3-0.6-17.3-5.7-22.8-2.7-2.9-6.3-5.5-10.4-6-4.3-0.4-8.5 1.8-10.3 5.8-1 2.2-1.4 4.8-1.4 7.5-0.2 2.2 0.1 4.5 0.9 6.8q0.5 1.4 1.3 2.8c1.1 2.6 2.8 4.9 4.7 6.5 1.4 1.3 2.8 2.5 4.3 3.4 5.9 3.5 13.9 3.5 16.6-4z"/>
				</g>
				<g id="&lt;Group&gt;">
					<path id="&lt;Path&gt;" class="s22" d="m924.4 1690.7q-9.7 73-19.4 146c-1 7.6 10.9 7.5 11.9 0q9.7-73 19.4-146c1-7.5-10.9-7.5-11.9 0z"/>
				</g>
				<g id="&lt;Group&gt;">
					<path id="&lt;Path&gt;" class="s22" d="m1508.2 1736.1c7.3 46.8 23.5 91.6 30.8 138.4 1.2 7.5 12.7 4.3 11.5-3.2-7.3-46.8-23.5-91.6-30.8-138.3-1.2-7.6-12.7-4.4-11.5 3.1z"/>
				</g>
				<g id="&lt;Group&gt;">
					<path id="&lt;Path&gt;" class="s22" d="m1185.1 1560.4c-0.7 39.8 0.4 79.5 4.1 119.1 2.5 26.9 9.5 29.7 35.2 36.8 7.4 2 10.6-9.5 3.2-11.5-19.7-5.4-23.8-14.3-27.3-35.2-1.9-11.2-1.7-23.3-2.3-34.7-1.2-24.8-1.4-49.6-1-74.5 0.1-7.6-11.8-7.6-11.9 0z"/>
				</g>
				<g id="&lt;Group&gt;">
					<path id="&lt;Path&gt;" class="s22" d="m1319.6 1506.1c-0.5-11.4 16.5-7.4 21.3-2.3 5.6 6.1 6.4 16.8 0.3 22.8-13.1 12.8-32.7-3.7-22.2-18.7 4.4-6.3-5.9-12.3-10.3-6-8.3 11.8-5.1 30 7.6 37.6 12.8 7.8 31.1 2.4 38-10.8 7.3-13.9 1-32.3-13-39.1-13.2-6.3-34.5-1.2-33.6 16.5 0.3 7.6 12.3 7.6 11.9 0z"/>
				</g>
				<g id="&lt;Group&gt;">
					<path id="&lt;Path&gt;" class="s22" d="m1516.5 1595.7c-19.9-10.4-72.4-41.2-83.9-3.2-10.2 34.1 33.9 60.3 59.4 69.7 7.2 2.7 10.3-8.9 3.2-11.5-19.4-7.2-53.5-25.1-51.8-50.3 2.2-32.6 54.3-1.1 67.1 5.6 6.8 3.5 12.8-6.8 6-10.3z"/>
				</g>
				<g id="&lt;Group&gt;">
					<path id="&lt;Path&gt;" class="s22" d="m1431.4 1611.9c-20.8 35 13.4 75.1 46 85.7 7.3 2.4 10.4-9.1 3.2-11.5-25.3-8.2-55.6-40.1-38.9-68.1 3.9-6.7-6.4-12.7-10.3-6.1z"/>
				</g>
				<g id="&lt;Group&gt;">
					<path id="&lt;Path&gt;" class="s22" d="m1432.7 1658.7c-34.2 42.9 24.7 73 60 79 21 3.6 48 6.9 66.7-5.9 20-13.7 22.8-39.5 21.1-61.7-0.6-7.6-12.5-7.7-11.9 0 2.9 38.8-14.6 60.9-56.2 58-13.9-0.9-28.6-3.4-41.9-8-19.7-6.8-49.7-27.5-29.4-52.9 4.8-6-3.6-14.5-8.4-8.5z"/>
				</g>
				<g id="&lt;Group&gt;">
					<path id="&lt;Path&gt;" class="s22" d="m1549.6 1591.7c-17.9-18.8-69.3-54.8-84.2-13.9-2.6 7.2 8.9 10.3 11.5 3.2 10.4-28.7 54.1 8.5 64.3 19.2 5.3 5.5 13.7-2.9 8.4-8.5z"/>
				</g>
				<g id="&lt;Group&gt;">
					<path id="&lt;Path&gt;" class="s22" d="m1545 1602.1c13.2 17.6 20.2 40.1 23.7 61.6 1.3 7.5 12.8 4.3 11.5-3.2-3.6-22.3-11.2-46.1-24.9-64.4-4.6-6-14.9-0.1-10.3 6z"/>
				</g>
				<g id="&lt;Group&gt;">
					<path id="&lt;Compound Path&gt;" fill-rule="evenodd" class="s22" d="m1483 687.4c0.7 4.5-5.5 6.5-7.6 2.5-26.1-50.1-78.6-34.8-124.1-27.8q-0.5 0.2-1.1 0.2-3.4 0.5-6.8 1c-3.3 0.4-5.5-1.6-6.4-4-1.4 0.9-3.1 0-3.8-1.3-0.2 0.1-0.3 0.3-0.5 0.5-2 1.3-5.1 0.3-4.8-2.4 0.4-3.8 3.2-7 5-10.2q3.3-5.6 6.5-11.2c1.3-2.3 3.9-1.8 5.3-0.2 0.4-0.7 0.9-1.4 1.3-2.1 1.3-2.2 3.7-1.8 5.2-0.4 15.8-13.3 45.9-12.8 64.7-11.9 30.9 1.5 49.5 17.9 60 42.8q0 0.1 0 0.2c2.6 6.1 4.6 12.6 6.2 19.6 0.1 0.4 0.1 0.7 0.1 1 0.2 1.2 0.5 2.4 0.8 3.7zm-77.4-58.9q-0.4-0.1-0.7-0.1-0.1 0.3-0.3 0.6 0.5-0.3 1-0.5zm-30.9 2.7q0 0-0.1 0 0 0 0 0 0.1 0 0.1 0z"/>
				</g>
				<g id="&lt;Group&gt;">
					<path id="&lt;Compound Path&gt;" fill-rule="evenodd" class="s22" d="m1193.2 658.8c-0.1 2.6-3.4 3.4-5.1 1.7-0.1-0.2-0.2-0.4-0.4-0.6-0.8 1.1-2.6 1.4-3.9 0.5-1.2 2.3-3.8 4-7 2.9q-3.1-0.9-6.2-2-0.9 0-1.6-0.5c-43.5-14.7-92.8-38.6-126.9 6.1-2.7 3.5-8.6 0.9-7.1-3.5 0.4-1.2 0.9-2.4 1.4-3.5 0.1-0.3 0.1-0.7 0.2-1 13.4-31.8 35.2-54.2 71.7-50.9 20.6 1.9 51.8 6.4 65.7 23.4 1.6-1.5 4.4-1.6 5.3 0.9 0.3 0.8 0.7 1.6 1 2.4 1.6-1.3 4.2-1.5 5.1 1.1q2.3 6.1 4.5 12.2c1.3 3.5 3.5 7 3.3 10.8zm-71.1-40.3q-0.4 0-0.7-0.1 0.4 0.4 0.9 0.7-0.2-0.3-0.2-0.6z"/>
				</g>
				<g id="&lt;Group&gt;">
					<path id="&lt;Path&gt;" class="s22" d="m1252.3 468.4c19.1 35 45.4 64.5 78.9 86.4 2.8 1.9 7.2-0.6 6.4-4.2-3.2-13.2-6.4-26.3-9.2-39.6q-3.8 1.9-7.5 3.7c56.9 77.5 149.9 134 246 143.4 3.7 0.3 5.1-5.7 1.3-6.6-95.4-24-175.2-68.6-240.8-142.5-2.7-3.1-8.7-0.7-7.5 3.7 3.4 13.1 6.5 26.2 9.5 39.4q3.2-2.1 6.4-4.2c-32.3-21.9-57.3-48.7-75.7-83.2-2.6-4.9-10.4-1.1-7.8 3.7z"/>
				</g>
				<g id="&lt;Group&gt;">
					<path id="&lt;Path&gt;" class="s22" d="m1218 460.2c20.9 38 54.3 69.6 96.2 82.9 3.4 1.1 4.8-3.6 1.7-5.1-38.1-18.3-69.6-44-90.4-81.4-2.6-4.7-10.1-1.1-7.5 3.6z"/>
				</g>
				<g id="&lt;Group&gt;">
					<path id="&lt;Path&gt;" class="s22" d="m998.2 547.5c-34.2 39.3-73.4 76.2-104.2 118.1-2.7 3.7 2.7 8.5 6 5.3 37.5-36.7 71.4-78.7 105.8-118.3 3.8-4.5-3.8-9.4-7.6-5.1z"/>
				</g>
				<g id="&lt;Group&gt;">
					<path id="&lt;Path&gt;" class="s22" d="m1599.2 847.9c2.9-7.7 6.6-15.1 11.2-21.9 3.9-5.7 10-11.2 12.3-17.6 1-2.9-2-4.9-4.5-4-7.1 2.4-13 11-17 17.1-4.7 7.2-8.5 15.1-11.4 23.2-2.2 6 7.2 9.2 9.4 3.2z"/>
				</g>
				<g id="&lt;Group&gt;">
					<path id="&lt;Path&gt;" class="s22" d="m1612.6 832.5c1.3-0.8 2.7-0.4 4.1 0.9 0.9 0.8 0.8 1.1 1.1 2.4 0.5 2.1 2.3 3.3 4.4 3 1.2-0.2 2.5-1.2 2.8-2.5 2.6-9.1-8.5-16.9-16.5-12.3-2.3 1.3-3.4 3.9-2.3 6.3 1 2.1 4.2 3.6 6.4 2.2z"/>
				</g>
				<g id="&lt;Group&gt;">
					<path id="&lt;Path&gt;" class="s22" d="m862.1 742.3c9.2 6.9 16.7 15.2 22.8 24.9 5.1 8.1 8 17.5 13.6 25.3 2 2.8 6.1 0.7 6.5-2.2 3-23-18.6-46.7-35.3-59.3-7-5.3-14.6 6-7.6 11.3z"/>
				</g>
				<g id="&lt;Group&gt;">
					<path id="&lt;Path&gt;" class="s22" d="m864.8 764.6c7.8-2.4 15.5-2.7 22.8 1.4q2.7-4 5.4-8.1c-12-6.2-26.4-5-38.7-0.7-7.1 2.5-2 13.4 5.1 10.6 10.6-4.1 21.6-1 32.2-3 5-1 4.6-7.1 0.7-9-10.8-5.1-25.4-0.8-36.6 1q1.9 5.5 3.7 11c10.5-3.7 19.9-2.4 30.5-1 5.4 0.8 7.3-8 1.9-9.4-9.4-2.4-19-3.1-28.4-0.1-4.5 1.4-3.2 8.7 1.4 7.3z"/>
				</g>
				<g id="&lt;Group&gt;">
					<path id="&lt;Path&gt;" class="s22" d="m1316.7 869.2c5.8 6.8 6.3 17.1 2.6 25.3-3.7 8.1-11.1 14.2-19.3 17.8 8.8 3.8 15 13.1 15.3 22.7 4.8-9.8 8.4-20.3 10.6-31.1 0.7-3.8 1.3-7.6 1.1-11.5-0.5-8.6-5-16.5-10.3-23.2z"/>
				</g>
				<g id="&lt;Group&gt;">
					<path id="&lt;Path&gt;" class="s22" d="m1190.8 873.2c-4.3 7.2-5.1 16.3-2.3 24.1 2.9 7.9 9.4 14.3 17.3 17-10.4 0.6-19.7 9.5-20.7 19.9-3-10.5-6-21.1-6.1-32-0.1-10.9 3.1-22.3 11.8-29z"/>
				</g>
				<g id="&lt;Group&gt;">
					<g id="&lt;Group&gt;">
						<path id="&lt;Path&gt;" class="s22" d="m1476.1 1471.9c7.6 0 7.6-12 0-12-7.7 0-7.7 12 0 12z"/>
					</g>
				</g>
				<g id="&lt;Group&gt;">
					<path id="&lt;Path&gt;" class="s22" d="m1046.6 1243.1c9.6-2.9 19.1-5.5 28.8-7.5 9.2-1.9 25.1-7.2 34.3-5.1 15.7 3.7 15.8 22.5 17.7 34.8 1.6 11.3 5.9 22.4-6 27.9-9.4 4.4-21.3 5-31.3 7.5-16.8 4.2-31.2 12.2-38.8-13.2-2.5-8.3-10-36.1-4.2-42.5 5.1-5.7-3.3-14.1-8.5-8.4-6.2 6.9-5.5 15.5-4.3 24.2 1.9 12.9 2.9 29.3 7.8 41.3 5.1 12.6 17.7 16.6 30.3 15.2 8.3-0.9 16.2-4 24.2-5.9 9.9-2.3 21.1-3.3 30.6-7.1 11.6-4.7 14.9-11.2 14.2-23.2-0.9-15.5-3-34.9-8.9-49.3-5.5-13.6-16.2-13.9-29.3-12.6-20.3 2.1-40.2 6.5-59.7 12.4-7.4 2.2-4.2 13.7 3.1 11.5z"/>
				</g>
				<g id="&lt;Group&gt;">
					<path id="&lt;Path&gt;" class="s22" d="m1421.1 1238.6c9.8 0.7 19.6 1.4 29.4 2.6 7.5 0.9 28.1 0.5 34.1 5.2 7.4 5.9 3.2 21.3 2.1 29.7-1.1 7.9-1.5 26.5-6.3 32.9-5.9 8-20.6 4.5-28.8 3.8-8.9-0.8-23.1-0.2-31.1-4.1-14.4-6.9-10.1-19.9-8.9-32.1 0.8-8.1-0.5-33.6 8.4-37.7 6.9-3.3 0.8-13.6-6.1-10.3-9.6 4.5-10.7 14-11.8 23.7-1.8 15.7-9.1 40.9-1.8 55.7 4.6 9.5 14.9 12.1 24.6 13.7 15.4 2.4 37.1 7.2 52.6 4.1 11.7-2.4 13.6-9.7 15.9-20.3 3.8-17.5 9.6-39.5 6.7-57.5-1.8-10.7-8.8-12.4-18.8-14.2-19.9-3.7-40-5.8-60.2-7.1-7.6-0.5-7.6 11.4 0 11.9z"/>
				</g>
				<g id="&lt;Group&gt;">
					<path id="&lt;Path&gt;" class="s22" d="m1424.5 1261.6c12-0.3 25.7-0.8 37.4 2.4 10.2 2.7 10.7 4 9.5 14.1-0.7 5.6 1.5 11.8-5.6 14.8-3.8 1.6-11.9-0.3-16-0.6-5.9-0.4-14.1 0-19.6-2-12.4-4.4-4.8-22.4-2.1-32.1 2.1-7.4-9.4-10.6-11.5-3.2-3.5 12.5-12.3 37.7 3.8 45 8.4 3.9 20.3 3.6 29.4 4.3 8.2 0.5 19.1 2.4 26.5-2.3 6.4-4.1 6.6-9.8 6.7-16.9 0-7.9 3.3-16.8-1.1-24.1-4.3-7.3-13.6-8.1-21.1-9.2-12.1-1.8-24.2-2.4-36.3-2.1-7.7 0.2-7.7 12.2 0 11.9z"/>
				</g>
				<g id="&lt;Group&gt;">
					<path id="&lt;Path&gt;" class="s22" d="m1056.2 1258.3c13.5-4.4 27.2-7.7 41.3-9.4 4.3-0.5 10.1-2.3 13.5 1.4 1.4 1.5 3.2 16.2 2.6 18.2-2.3 7.4-9.8 6.4-16.8 7.8-5.1 1-10.1 2.2-15.3 3.2q-6.1 1.4-12.4 1.9-6.1 1.1-4.9-5.2c-2.2-5.9-1.8-15-2.3-21.4-0.6-7.5-12.6-7.6-11.9 0 1.3 15.5-1.5 39.1 19.1 38.5 12-0.4 24.3-4.1 36-6.6 6.4-1.3 15.6-1.5 19.4-7.8 3.7-6.1 0.2-16.2-0.7-22.6-1-6.9-0.7-15.3-7.8-18.9-7.1-3.6-17.7-0.6-24.9 0.4-13 1.9-25.6 5-38 9-7.3 2.3-4.2 13.8 3.1 11.5z"/>
				</g>
				<g id="&lt;Group&gt;">
					<path id="&lt;Path&gt;" class="s22" d="m719.7 1240.9c26.2 56.2 80.2 70.8 138 74.1 7.6 0.5 7.6-11.5 0-11.9-53.7-3.1-103.2-15.7-127.7-68.2-3.2-7-13.5-0.9-10.3 6z"/>
				</g>
				<g id="&lt;Group&gt;">
					<path id="&lt;Path&gt;" class="s22" d="m1553 1562.1c52.4 12.5 71.1 81.8 61.2 127.2-1.6 7.5 9.9 10.7 11.5 3.1 11.3-51.6-10.7-127.7-69.6-141.8-7.4-1.7-10.6 9.8-3.1 11.5z"/>
				</g>
				<g id="&lt;Group&gt;">
					<path id="&lt;Path&gt;" class="s4" d="m1098 768.6c0 1.7-1.4 3.1-3.1 3.1-1.7 0-3.1-1.4-3.1-3.1 0-1.7 1.4-3.1 3.1-3.1 1.7 0 3.1 1.4 3.1 3.1z"/>
				</g>
				<g id="&lt;Group&gt;">
					<path id="&lt;Path&gt;" class="s4" d="m1409.2 785.3c0 2.3-1.9 4.2-4.2 4.2-2.4 0-4.3-1.9-4.3-4.2 0-2.4 1.9-4.3 4.3-4.3 2.3 0 4.2 1.9 4.2 4.3z"/>
				</g>
			</g>
			<g id="&lt;Group&gt;">
				<path id="&lt;Path&gt;" class="s22" d="m890.1 644.9c-5.9 4.3-6.8 16.7-4.2 22.9 1.6 3.8 7.1 2.3 7.5-1.4 0.4-3.5-0.2-6.9 0.2-10.4 0.4-3.2 1.6-6.3 1.2-9.5-0.3-2.3-3.1-2.8-4.7-1.6z"/>
			</g>
		</g>
	</g>
</svg>